<svg xmlns="http://www.w3.org/2000/svg" viewBox="0 0 109 109" id="4ff1"><g fill="none" stroke="#a6a6a6" stroke-width="6" stroke-linecap="round" stroke-linejoin="round"><g><g><path d="M38.45,15.39c0.17,1.17,0.31,2.64-0.16,4.08c-2.94,9.09-14.3,26.67-27.99,39" /><path d="M29.03,40c0.59,0.61,0.76,1.97,0.76,3.23c0,13.02-0.29,43.15-0.29,51.9" /></g><g><g><path d="M54.05,16.73c0.32,0.82,0.94,1.9,1,3.34c0.27,6.4,0.39,52.02,0.39,52.74" /><path d="M55.73,18.67c2.31-0.18,20.06-3.07,22.16-3.28c1.76-0.18,2.99,0.93,2.99,4.81c0,6.3-0.01,33.29-0.53,50.35" /><path d="M55.22,32.66c8.43-1.02,20.06-2.5,25.65-2.85" /><path d="M55.58,46.63c6.13-0.61,17.14-2.37,24.7-2.77" /><path d="M55.99,61.1c9.12-1.49,16.57-2.06,24.11-2.81" /></g><g><path d="M39.84,73.8c1.14,0.48,3.22,0.59,4.35,0.48c7.05-0.66,36.62-4.46,49.48-4.45c1.89,0,3.03,0.23,3.98,0.47" /><g><path d="M57.26,79.22c0.04,0.34,0.09,0.88-0.09,1.37c-1.08,2.89-7.27,9.24-15.74,13.12" /><path d="M74.82,77.61c6.4,3.17,16.54,13.02,18.14,17.95" /></g></g></g></g></g><g fill="none" stroke="#000" stroke-width="3" stroke-linecap="round" stroke-linejoin="round"><path d="M38.45,15.39c0.17,1.17,0.31,2.64-0.16,4.08c-2.94,9.09-14.3,26.67-27.99,39" stroke-dasharray="52.527" stroke-dashoffset="52.527"><animate attributeName="stroke-dashoffset" values="52.527;52.527;0" dur="0.525s" fill="freeze" begin="0s;4ff1.click" /></path><path d="M29.03,40c0.59,0.61,0.76,1.97,0.76,3.23c0,13.02-0.29,43.15-0.29,51.9" stroke-dasharray="55.287" stroke-dashoffset="55.287"><animate attributeName="stroke-dashoffset" values="55.287" fill="freeze" begin="4ff1.click" /><animate attributeName="stroke-dashoffset" values="55.287;55.287;0" keyTimes="0;0.487;1" dur="1.078s" fill="freeze" begin="0s;4ff1.click" /></path><path d="M54.05,16.73c0.32,0.82,0.94,1.9,1,3.34c0.27,6.4,0.39,52.02,0.39,52.74" stroke-dasharray="56.253" stroke-dashoffset="56.253"><animate attributeName="stroke-dashoffset" values="56.253" fill="freeze" begin="4ff1.click" /><animate attributeName="stroke-dashoffset" values="56.253;56.253;0" keyTimes="0;0.657;1" dur="1.641s" fill="freeze" begin="0s;4ff1.click" /></path><path d="M55.73,18.67c2.31-0.18,20.06-3.07,22.16-3.28c1.76-0.18,2.99,0.93,2.99,4.81c0,6.3-0.01,33.29-0.53,50.35" stroke-dasharray="79.285" stroke-dashoffset="79.285"><animate attributeName="stroke-dashoffset" values="79.285" fill="freeze" begin="4ff1.click" /><animate attributeName="stroke-dashoffset" values="79.285;79.285;0" keyTimes="0;0.734;1" dur="2.237s" fill="freeze" begin="0s;4ff1.click" /></path><path d="M55.22,32.66c8.43-1.02,20.06-2.5,25.65-2.85" stroke-dasharray="25.811" stroke-dashoffset="25.811"><animate attributeName="stroke-dashoffset" values="25.811" fill="freeze" begin="4ff1.click" /><animate attributeName="stroke-dashoffset" values="25.811;25.811;0" keyTimes="0;0.897;1" dur="2.495s" fill="freeze" begin="0s;4ff1.click" /></path><path d="M55.58,46.63c6.13-0.61,17.14-2.37,24.7-2.77" stroke-dasharray="24.86" stroke-dashoffset="24.86"><animate attributeName="stroke-dashoffset" values="24.86" fill="freeze" begin="4ff1.click" /><animate attributeName="stroke-dashoffset" values="24.86;24.86;0" keyTimes="0;0.909;1" dur="2.744s" fill="freeze" begin="0s;4ff1.click" /></path><path d="M55.99,61.1c9.12-1.49,16.57-2.06,24.11-2.81" stroke-dasharray="24.279" stroke-dashoffset="24.279"><animate attributeName="stroke-dashoffset" values="24.279" fill="freeze" begin="4ff1.click" /><animate attributeName="stroke-dashoffset" values="24.279;24.279;0" keyTimes="0;0.919;1" dur="2.987s" fill="freeze" begin="0s;4ff1.click" /></path><path d="M39.84,73.8c1.14,0.48,3.22,0.59,4.35,0.48c7.05-0.66,36.62-4.46,49.48-4.45c1.89,0,3.03,0.23,3.98,0.47" stroke-dasharray="58.127" stroke-dashoffset="58.127"><animate attributeName="stroke-dashoffset" values="58.127" fill="freeze" begin="4ff1.click" /><animate attributeName="stroke-dashoffset" values="58.127;58.127;0" keyTimes="0;0.837;1" dur="3.568s" fill="freeze" begin="0s;4ff1.click" /></path><path d="M57.26,79.22c0.04,0.34,0.09,0.88-0.09,1.37c-1.08,2.89-7.27,9.24-15.74,13.12" stroke-dasharray="22.21" stroke-dashoffset="22.21"><animate attributeName="stroke-dashoffset" values="22.21" fill="freeze" begin="4ff1.click" /><animate attributeName="stroke-dashoffset" values="22.21;22.21;0" keyTimes="0;0.941;1" dur="3.79s" fill="freeze" begin="0s;4ff1.click" /></path><path d="M74.82,77.61c6.4,3.17,16.54,13.02,18.14,17.95" stroke-dasharray="25.892" stroke-dashoffset="25.892"><animate attributeName="stroke-dashoffset" values="25.892" fill="freeze" begin="4ff1.click" /><animate attributeName="stroke-dashoffset" values="25.892;25.892;0" keyTimes="0;0.936;1" dur="4.049s" fill="freeze" begin="0s;4ff1.click" /></path></g></svg>