<svg xmlns="http://www.w3.org/2000/svg" viewBox="0 0 109 109" id="541e"><g fill="none" stroke="#a6a6a6" stroke-width="6" stroke-linecap="round" stroke-linejoin="round"><g><g><g><path d="M28.38,23.61c0.99,0.33,3.53,0.51,4.62,0.46c10.76-0.56,28.26-2.81,38.87-4.22c1.36-0.18,2.89-0.34,4.89,0.19" /></g><g><g><path d="M15.12,44.36c0.99,0.33,3.53,0.5,4.62,0.46c12.65-0.54,51.51-6.09,67.37-6.22c1.37-0.01,3.32,0.13,6.39,0.69" /></g><path d="M53.6,24.95c0.4,1.05,0.19,2.63-0.11,4.15C49.25,50.25,34.5,65.09,15.25,75.5" /><path d="M56,41.27c8.21,7.44,26.01,24.96,34.22,29.94c2.79,1.69,3.76,1.95,5.03,2.1" /></g></g><g><path d="M33.75,71.52c0.51,0.44,1.03,0.8,1.26,1.34c1.77,4.32,3.89,16.23,5.1,23.99" /><path d="M36.93,73.45c10.57-1.2,29.14-2.74,35.12-3.31c2.18-0.21,3.01,2.39,2.7,3.61c-1.29,5.04-3.32,12.97-5.25,19.95" /><path d="M40.34,96.06c7.02-0.64,20.16-1.56,31.34-1.74" /></g></g></g><g fill="none" stroke="#000" stroke-width="3" stroke-linecap="round" stroke-linejoin="round"><path d="M28.38,23.61c0.99,0.33,3.53,0.51,4.62,0.46c10.76-0.56,28.26-2.81,38.87-4.22c1.36-0.18,2.89-0.34,4.89,0.19" stroke-dasharray="48.695" stroke-dashoffset="48.695"><animate attributeName="stroke-dashoffset" values="48.695;48.695;0" dur="0.487s" fill="freeze" begin="0s;541e.click" /></path><path d="M15.12,44.36c0.99,0.33,3.53,0.5,4.62,0.46c12.65-0.54,51.51-6.09,67.37-6.22c1.37-0.01,3.32,0.13,6.39,0.69" stroke-dasharray="78.768" stroke-dashoffset="78.768"><animate attributeName="stroke-dashoffset" values="78.768" fill="freeze" begin="541e.click" /><animate attributeName="stroke-dashoffset" values="78.768;78.768;0" keyTimes="0;0.451;1" dur="1.079s" fill="freeze" begin="0s;541e.click" /></path><path d="M53.6,24.95c0.4,1.05,0.19,2.63-0.11,4.15C49.25,50.25,34.5,65.09,15.25,75.5" stroke-dasharray="66.412" stroke-dashoffset="66.412"><animate attributeName="stroke-dashoffset" values="66.412" fill="freeze" begin="541e.click" /><animate attributeName="stroke-dashoffset" values="66.412;66.412;0" keyTimes="0;0.684;1" dur="1.578s" fill="freeze" begin="0s;541e.click" /></path><path d="M56,41.27c8.21,7.44,26.01,24.96,34.22,29.94c2.79,1.69,3.76,1.95,5.03,2.1" stroke-dasharray="51.017" stroke-dashoffset="51.017"><animate attributeName="stroke-dashoffset" values="51.017" fill="freeze" begin="541e.click" /><animate attributeName="stroke-dashoffset" values="51.017;51.017;0" keyTimes="0;0.756;1" dur="2.088s" fill="freeze" begin="0s;541e.click" /></path><path d="M33.75,71.52c0.51,0.44,1.03,0.8,1.26,1.34c1.77,4.32,3.89,16.23,5.1,23.99" stroke-dasharray="26.416" stroke-dashoffset="26.416"><animate attributeName="stroke-dashoffset" values="26.416" fill="freeze" begin="541e.click" /><animate attributeName="stroke-dashoffset" values="26.416;26.416;0" keyTimes="0;0.888;1" dur="2.352s" fill="freeze" begin="0s;541e.click" /></path><path d="M36.93,73.45c10.57-1.2,29.14-2.74,35.12-3.31c2.18-0.21,3.01,2.39,2.7,3.61c-1.29,5.04-3.32,12.97-5.25,19.95" stroke-dasharray="61.112" stroke-dashoffset="61.112"><animate attributeName="stroke-dashoffset" values="61.112" fill="freeze" begin="541e.click" /><animate attributeName="stroke-dashoffset" values="61.112;61.112;0" keyTimes="0;0.837;1" dur="2.811s" fill="freeze" begin="0s;541e.click" /></path><path d="M40.34,96.06c7.02-0.64,20.16-1.56,31.34-1.74" stroke-dasharray="31.395" stroke-dashoffset="31.395"><animate attributeName="stroke-dashoffset" values="31.395" fill="freeze" begin="541e.click" /><animate attributeName="stroke-dashoffset" values="31.395;31.395;0" keyTimes="0;0.9;1" dur="3.125s" fill="freeze" begin="0s;541e.click" /></path></g></svg>