<svg xmlns="http://www.w3.org/2000/svg" viewBox="0 0 109 109" id="5653"><g fill="none" stroke="#a6a6a6" stroke-width="6" stroke-linecap="round" stroke-linejoin="round"><g><g><path d="M13.25,34.02c0.34,0.45,0.69,0.82,0.84,1.38c1.19,4.44,2.61,16.67,3.42,24.63" /><path d="M15.38,36.16c8.64-1.95,13.8-3.12,17.81-3.7c1.47-0.21,2.35,1.26,2.14,2.51c-0.87,5.18-1.88,13.19-3.17,20.35" /><path d="M17.67,57.9c4.71-0.66,10.39-0.92,16.86-1.93" /></g><g><g><path d="M62.59,11.08c0.91,0.92,1.62,1.99,1.62,5.02c0,5.9-0.02,8.19-0.02,13.15" /><path d="M64.16,20.67c4.91-0.93,10.9-2.01,15.45-2.68c1.54-0.23,2.48,0.2,3.25,0.42" /><path d="M44.62,30.68c0.59,0.57,0.65,2.72,0.65,4.78c-0.02,23.29-3.27,42.79-15.02,59.29" /><path d="M45.81,32.18c0.97,0.16,0.73,0.41,2.3,0.17c11.2-1.73,30.46-3.88,40.05-4.02c10.11-0.15,2.14,5.72-0.38,7.53" /><g><g><path d="M51.13,44.19c0.65,0.37,2.24,0.45,2.9,0.37c6.72-0.81,20.1-2.57,27.13-3.47c1.08-0.14,1.73,0.18,2.28,0.36" /></g><path d="M63.97,34.18c0.43,0.45,1.01,2.22,1.01,2.84c0,4.98-0.08,7.14-0.08,9.37c0,6.61,3.85,6.61,10.07,6.61c2.31,0,11.37,0,13.36-0.89" /></g></g><g><g><path d="M50.36,66.99c0.61,0.4,1.03,1.87,1.08,3.2c0.09,2.4-0.17,6.24-0.56,11.05c-0.08,0.94,0.5,1.58,1.78,1.2c4.09-1.2,8.76-1.6,10.44-1.7" /><g><path d="M61.64,59.33c0.76,0.86,1.29,1.87,1.35,4.73c0.31,13.72-0.2,24.23-0.2,28.9" /></g></g><g><g><path d="M87.18,64.33c0.61,0.4,1.08,1.87,1.08,3.2c0,3.67-1.44,10-1.44,14.93" /></g><path d="M 74.659375,80.86375 c 4.987292,-0.347708 7.002292,-0.499583 11.123542,-0.613125" /><path d="M73.1,59.58c0.75,0.85,1.27,1.85,1.33,4.66c0.31,13.52-0.19,23.37-0.19,27.97" /></g></g><g><path d="M40.88,95.32c1.08,0.42,3.07,0.62,4.14,0.42c4.37-0.81,39.17-2.95,49.44-2.95c1.8,0,2.88,0.2,3.78,0.41" /></g></g></g></g><g fill="none" stroke="#000" stroke-width="3" stroke-linecap="round" stroke-linejoin="round"><path d="M13.25,34.02c0.34,0.45,0.69,0.82,0.84,1.38c1.19,4.44,2.61,16.67,3.42,24.63" stroke-dasharray="26.51" stroke-dashoffset="26.51"><animate attributeName="stroke-dashoffset" values="26.51;26.51;0" dur="0.265s" fill="freeze" begin="0s;5653.click" /></path><path d="M15.38,36.16c8.64-1.95,13.8-3.12,17.81-3.7c1.47-0.21,2.35,1.26,2.14,2.51c-0.87,5.18-1.88,13.19-3.17,20.35" stroke-dasharray="42.634" stroke-dashoffset="42.634"><animate attributeName="stroke-dashoffset" values="42.634" fill="freeze" begin="5653.click" /><animate attributeName="stroke-dashoffset" values="42.634;42.634;0" keyTimes="0;0.384;1" dur="0.691s" fill="freeze" begin="0s;5653.click" /></path><path d="M17.67,57.9c4.71-0.66,10.39-0.92,16.86-1.93" stroke-dasharray="16.973" stroke-dashoffset="16.973"><animate attributeName="stroke-dashoffset" values="16.973" fill="freeze" begin="5653.click" /><animate attributeName="stroke-dashoffset" values="16.973;16.973;0" keyTimes="0;0.803;1" dur="0.861s" fill="freeze" begin="0s;5653.click" /></path><path d="M62.59,11.08c0.91,0.92,1.62,1.99,1.62,5.02c0,5.9-0.02,8.19-0.02,13.15" stroke-dasharray="18.589" stroke-dashoffset="18.589"><animate attributeName="stroke-dashoffset" values="18.589" fill="freeze" begin="5653.click" /><animate attributeName="stroke-dashoffset" values="18.589;18.589;0" keyTimes="0;0.822;1" dur="1.047s" fill="freeze" begin="0s;5653.click" /></path><path d="M64.16,20.67c4.91-0.93,10.9-2.01,15.45-2.68c1.54-0.23,2.48,0.2,3.25,0.42" stroke-dasharray="18.997" stroke-dashoffset="18.997"><animate attributeName="stroke-dashoffset" values="18.997" fill="freeze" begin="5653.click" /><animate attributeName="stroke-dashoffset" values="18.997;18.997;0" keyTimes="0;0.846;1" dur="1.237s" fill="freeze" begin="0s;5653.click" /></path><path d="M44.62,30.68c0.59,0.57,0.65,2.72,0.65,4.78c-0.02,23.29-3.27,42.79-15.02,59.29" stroke-dasharray="67.099" stroke-dashoffset="67.099"><animate attributeName="stroke-dashoffset" values="67.099" fill="freeze" begin="5653.click" /><animate attributeName="stroke-dashoffset" values="67.099;67.099;0" keyTimes="0;0.71;1" dur="1.742s" fill="freeze" begin="0s;5653.click" /></path><path d="M45.81,32.18c0.97,0.16,0.73,0.41,2.3,0.17c11.2-1.73,30.46-3.88,40.05-4.02c10.11-0.15,2.14,5.72-0.38,7.53" stroke-dasharray="56.433" stroke-dashoffset="56.433"><animate attributeName="stroke-dashoffset" values="56.433" fill="freeze" begin="5653.click" /><animate attributeName="stroke-dashoffset" values="56.433;56.433;0" keyTimes="0;0.755;1" dur="2.306s" fill="freeze" begin="0s;5653.click" /></path><path d="M51.13,44.19c0.65,0.37,2.24,0.45,2.9,0.37c6.72-0.81,20.1-2.57,27.13-3.47c1.08-0.14,1.73,0.18,2.28,0.36" stroke-dasharray="32.642" stroke-dashoffset="32.642"><animate attributeName="stroke-dashoffset" values="32.642" fill="freeze" begin="5653.click" /><animate attributeName="stroke-dashoffset" values="32.642;32.642;0" keyTimes="0;0.876;1" dur="2.632s" fill="freeze" begin="0s;5653.click" /></path><path d="M63.97,34.18c0.43,0.45,1.01,2.22,1.01,2.84c0,4.98-0.08,7.14-0.08,9.37c0,6.61,3.85,6.61,10.07,6.61c2.31,0,11.37,0,13.36-0.89" stroke-dasharray="40.096" stroke-dashoffset="40.096"><animate attributeName="stroke-dashoffset" values="40.096" fill="freeze" begin="5653.click" /><animate attributeName="stroke-dashoffset" values="40.096;40.096;0" keyTimes="0;0.868;1" dur="3.033s" fill="freeze" begin="0s;5653.click" /></path><path d="M50.36,66.99c0.61,0.4,1.03,1.87,1.08,3.2c0.09,2.4-0.17,6.24-0.56,11.05c-0.08,0.94,0.5,1.58,1.78,1.2c4.09-1.2,8.76-1.6,10.44-1.7" stroke-dasharray="27.8" stroke-dashoffset="27.8"><animate attributeName="stroke-dashoffset" values="27.8" fill="freeze" begin="5653.click" /><animate attributeName="stroke-dashoffset" values="27.8;27.8;0" keyTimes="0;0.916;1" dur="3.311s" fill="freeze" begin="0s;5653.click" /></path><path d="M61.64,59.33c0.76,0.86,1.29,1.87,1.35,4.73c0.31,13.72-0.2,24.23-0.2,28.9" stroke-dasharray="33.939" stroke-dashoffset="33.939"><animate attributeName="stroke-dashoffset" values="33.939" fill="freeze" begin="5653.click" /><animate attributeName="stroke-dashoffset" values="33.939;33.939;0" keyTimes="0;0.907;1" dur="3.65s" fill="freeze" begin="0s;5653.click" /></path><path d="M87.18,64.33c0.61,0.4,1.08,1.87,1.08,3.2c0,3.67-1.44,10-1.44,14.93" stroke-dasharray="18.485" stroke-dashoffset="18.485"><animate attributeName="stroke-dashoffset" values="18.485" fill="freeze" begin="5653.click" /><animate attributeName="stroke-dashoffset" values="18.485;18.485;0" keyTimes="0;0.952;1" dur="3.835s" fill="freeze" begin="0s;5653.click" /></path><path d="M 74.659375,80.86375 c 4.987292,-0.347708 7.002292,-0.499583 11.123542,-0.613125" stroke-dasharray="11.143" stroke-dashoffset="11.143"><animate attributeName="stroke-dashoffset" values="11.143" fill="freeze" begin="5653.click" /><animate attributeName="stroke-dashoffset" values="11.143;11.143;0" keyTimes="0;0.945;1" dur="4.058s" fill="freeze" begin="0s;5653.click" /></path><path d="M73.1,59.58c0.75,0.85,1.27,1.85,1.33,4.66c0.31,13.52-0.19,23.37-0.19,27.97" stroke-dasharray="32.934" stroke-dashoffset="32.934"><animate attributeName="stroke-dashoffset" values="32.934" fill="freeze" begin="5653.click" /><animate attributeName="stroke-dashoffset" values="32.934;32.934;0" keyTimes="0;0.925;1" dur="4.387s" fill="freeze" begin="0s;5653.click" /></path><path d="M40.88,95.32c1.08,0.42,3.07,0.62,4.14,0.42c4.37-0.81,39.17-2.95,49.44-2.95c1.8,0,2.88,0.2,3.78,0.41" stroke-dasharray="57.554" stroke-dashoffset="57.554"><animate attributeName="stroke-dashoffset" values="57.554" fill="freeze" begin="5653.click" /><animate attributeName="stroke-dashoffset" values="57.554;57.554;0" keyTimes="0;0.884;1" dur="4.963s" fill="freeze" begin="0s;5653.click" /></path></g></svg>