<svg xmlns="http://www.w3.org/2000/svg" viewBox="0 0 109 109" id="7130"><g fill="none" stroke="#a6a6a6" stroke-width="6" stroke-linecap="round" stroke-linejoin="round"><g><g><path d="M14.74,38c1.59,3.47,3.91,13.28,4.34,16.75" /><path d="M42.1,30.75c0.7,0.7,0.51,2.12-0.12,3.2c-0.63,1.08-6.6,9.03-9.75,11.55" /><path d="M27.75,16.25c0.76,0.75,1.52,1.75,1.53,3C29.5,70.75,25.5,81,13,94" /><path d="M29.75,65c4.75,2.64,10.75,8.51,12,12.25" /></g><g><g><g><path d="M62.95,11c0.05,0.87,0.11,2.25-0.1,3.51c-1.25,7.39-8.43,23.62-18.26,33.55" /></g><path d="M63,21.59c0.59,0.28,1.4,0.33,2.35,0.19c3.63-0.53,14.12-2.77,16.47-2.86c2.35-0.09,2.82,0.93,2.46,2.88c-0.35,1.95-3.96,17.42-9.12,22.72c-1.55,1.59-3.37,0.43-5.13-1.34" /></g><g><path d="M63.97,46.21c0.05,0.27,0.19,0.8-0.09,1.1c-3.73,3.92-8.09,7.41-16.59,10.52" /><path d="M45.44,56.8c0.72,0.74,1.01,2.4,1.19,3.92c0.65,5.56,2.7,27.27,3.36,34.78" /><path d="M48.3,74.37c3.56-0.34,13.83-2.69,14.68-2.69c0.85,0,2.03,0,2.71,0" /><path d="M72.85,54.12c0.85,0.17,1.52,0.51,2.71,0.51s13.72-2.03,15.07-2.2c1.35-0.17,2.48,0.84,2.37,1.86c-1.02,9.8-2.37,28.72-3.39,36.82c-0.15,1.17,0,1.86-0.17,2.53" /><path d="M73.19,70.51c0.85,0.17,1.52,0.51,2.71,0.51c1.18,0,14.28-1.35,15.64-1.52" /><path d="M50.16,92.63c2.2,0,36.07-2.2,38.61-2.37" /></g></g></g></g><g fill="none" stroke="#000" stroke-width="3" stroke-linecap="round" stroke-linejoin="round"><path d="M14.74,38c1.59,3.47,3.91,13.28,4.34,16.75" stroke-dasharray="17.338" stroke-dashoffset="17.338"><animate attributeName="stroke-dashoffset" values="17.338;17.338;0" dur="0.173s" fill="freeze" begin="0s;7130.click" /></path><path d="M42.1,30.75c0.7,0.7,0.51,2.12-0.12,3.2c-0.63,1.08-6.6,9.03-9.75,11.55" stroke-dasharray="18.565" stroke-dashoffset="18.565"><animate attributeName="stroke-dashoffset" values="18.565" fill="freeze" begin="7130.click" /><animate attributeName="stroke-dashoffset" values="18.565;18.565;0" keyTimes="0;0.482;1" dur="0.359s" fill="freeze" begin="0s;7130.click" /></path><path d="M27.75,16.25c0.76,0.75,1.52,1.75,1.53,3C29.5,70.75,25.5,81,13,94" stroke-dasharray="82.186" stroke-dashoffset="82.186"><animate attributeName="stroke-dashoffset" values="82.186" fill="freeze" begin="7130.click" /><animate attributeName="stroke-dashoffset" values="82.186;82.186;0" keyTimes="0;0.367;1" dur="0.977s" fill="freeze" begin="0s;7130.click" /></path><path d="M29.75,65c4.75,2.64,10.75,8.51,12,12.25" stroke-dasharray="17.412" stroke-dashoffset="17.412"><animate attributeName="stroke-dashoffset" values="17.412" fill="freeze" begin="7130.click" /><animate attributeName="stroke-dashoffset" values="17.412;17.412;0" keyTimes="0;0.849;1" dur="1.151s" fill="freeze" begin="0s;7130.click" /></path><path d="M62.95,11c0.05,0.87,0.11,2.25-0.1,3.51c-1.25,7.39-8.43,23.62-18.26,33.55" stroke-dasharray="42.15" stroke-dashoffset="42.15"><animate attributeName="stroke-dashoffset" values="42.15" fill="freeze" begin="7130.click" /><animate attributeName="stroke-dashoffset" values="42.15;42.15;0" keyTimes="0;0.732;1" dur="1.572s" fill="freeze" begin="0s;7130.click" /></path><path d="M63,21.59c0.59,0.28,1.4,0.33,2.35,0.19c3.63-0.53,14.12-2.77,16.47-2.86c2.35-0.09,2.82,0.93,2.46,2.88c-0.35,1.95-3.96,17.42-9.12,22.72c-1.55,1.59-3.37,0.43-5.13-1.34" stroke-dasharray="54.556" stroke-dashoffset="54.556"><animate attributeName="stroke-dashoffset" values="54.556" fill="freeze" begin="7130.click" /><animate attributeName="stroke-dashoffset" values="54.556;54.556;0" keyTimes="0;0.742;1" dur="2.118s" fill="freeze" begin="0s;7130.click" /></path><path d="M63.97,46.21c0.05,0.27,0.19,0.8-0.09,1.1c-3.73,3.92-8.09,7.41-16.59,10.52" stroke-dasharray="20.99" stroke-dashoffset="20.99"><animate attributeName="stroke-dashoffset" values="20.99" fill="freeze" begin="7130.click" /><animate attributeName="stroke-dashoffset" values="20.99;20.99;0" keyTimes="0;0.91;1" dur="2.328s" fill="freeze" begin="0s;7130.click" /></path><path d="M45.44,56.8c0.72,0.74,1.01,2.4,1.19,3.92c0.65,5.56,2.7,27.27,3.36,34.78" stroke-dasharray="39.099" stroke-dashoffset="39.099"><animate attributeName="stroke-dashoffset" values="39.099" fill="freeze" begin="7130.click" /><animate attributeName="stroke-dashoffset" values="39.099;39.099;0" keyTimes="0;0.856;1" dur="2.719s" fill="freeze" begin="0s;7130.click" /></path><path d="M48.3,74.37c3.56-0.34,13.83-2.69,14.68-2.69c0.85,0,2.03,0,2.71,0" stroke-dasharray="17.64" stroke-dashoffset="17.64"><animate attributeName="stroke-dashoffset" values="17.64" fill="freeze" begin="7130.click" /><animate attributeName="stroke-dashoffset" values="17.64;17.64;0" keyTimes="0;0.939;1" dur="2.895s" fill="freeze" begin="0s;7130.click" /></path><path d="M72.85,54.12c0.85,0.17,1.52,0.51,2.71,0.51s13.72-2.03,15.07-2.2c1.35-0.17,2.48,0.84,2.37,1.86c-1.02,9.8-2.37,28.72-3.39,36.82c-0.15,1.17,0,1.86-0.17,2.53" stroke-dasharray="60.947" stroke-dashoffset="60.947"><animate attributeName="stroke-dashoffset" values="60.947" fill="freeze" begin="7130.click" /><animate attributeName="stroke-dashoffset" values="60.947;60.947;0" keyTimes="0;0.863;1" dur="3.353s" fill="freeze" begin="0s;7130.click" /></path><path d="M73.19,70.51c0.85,0.17,1.52,0.51,2.71,0.51c1.18,0,14.28-1.35,15.64-1.52" stroke-dasharray="18.483" stroke-dashoffset="18.483"><animate attributeName="stroke-dashoffset" values="18.483" fill="freeze" begin="7130.click" /><animate attributeName="stroke-dashoffset" values="18.483;18.483;0" keyTimes="0;0.948;1" dur="3.538s" fill="freeze" begin="0s;7130.click" /></path><path d="M50.16,92.63c2.2,0,36.07-2.2,38.61-2.37" stroke-dasharray="38.684" stroke-dashoffset="38.684"><animate attributeName="stroke-dashoffset" values="38.684" fill="freeze" begin="7130.click" /><animate attributeName="stroke-dashoffset" values="38.684;38.684;0" keyTimes="0;0.901;1" dur="3.925s" fill="freeze" begin="0s;7130.click" /></path></g></svg>