<svg xmlns="http://www.w3.org/2000/svg" viewBox="0 0 109 109" id="72ad"><g fill="none" stroke="#a6a6a6" stroke-width="6" stroke-linecap="round" stroke-linejoin="round"><g><path d="M39.31,17.5c0.13,1.12-0.19,2.21-0.8,3.09c-5.08,7.33-11.26,12.79-22.76,20.7" /><path d="M20.5,20.75c29.5,15,17.75,82.25,4.75,68.5" /><path d="M34.32,46.75c0,1.12-0.22,2.29-0.61,2.92C28.62,57.88,23.75,64.12,14,72.04" /></g></g><g fill="none" stroke="#000" stroke-width="3" stroke-linecap="round" stroke-linejoin="round"><path d="M39.31,17.5c0.13,1.12-0.19,2.21-0.8,3.09c-5.08,7.33-11.26,12.79-22.76,20.7" stroke-dasharray="34.213" stroke-dashoffset="34.213"><animate attributeName="stroke-dashoffset" values="34.213;34.213;0" dur="0.342s" fill="freeze" begin="0s;72ad.click" /></path><path d="M20.5,20.75c29.5,15,17.75,82.25,4.75,68.5" stroke-dasharray="84.099" stroke-dashoffset="84.099"><animate attributeName="stroke-dashoffset" values="84.099" fill="freeze" begin="72ad.click" /><animate attributeName="stroke-dashoffset" values="84.099;84.099;0" keyTimes="0;0.351;1" dur="0.974s" fill="freeze" begin="0s;72ad.click" /></path><path d="M34.32,46.75c0,1.12-0.22,2.29-0.61,2.92C28.62,57.88,23.75,64.12,14,72.04" stroke-dasharray="32.995" stroke-dashoffset="32.995"><animate attributeName="stroke-dashoffset" values="32.995" fill="freeze" begin="72ad.click" /><animate attributeName="stroke-dashoffset" values="32.995;32.995;0" keyTimes="0;0.747;1" dur="1.304s" fill="freeze" begin="0s;72ad.click" /></path></g></svg>