<svg xmlns="http://www.w3.org/2000/svg" viewBox="0 0 109 109" id="79b1"><g fill="none" stroke="#a6a6a6" stroke-width="6" stroke-linecap="round" stroke-linejoin="round"><g><g><g><path d="M16.61,16.05c0.71,0.36,2.02,0.4,2.73,0.36c4.47-0.25,11.65-1.3,16.18-1.64c1.19-0.09,1.9,0.17,2.5,0.35" /><path d="M11.65,34.15c1.09,0.19,3.05,0.1,4.13,0c6.75-0.58,17.01-2,24.78-2.76c1.78-0.17,2.87-0.05,3.77,0.02" /></g><g><path d="M27.85,34.93c0.48,0.44,0.77,1.97,0.87,2.85c0.1,0.88,0,51.24-0.1,56.72" /><path d="M18.75,46.25c0.45,1.55,0.44,2.35,0.44,3.66c0,9.6-0.88,22.76-7.63,35.05" /><path d="M36.95,43.25c0.95,0.46,1.52,2.05,1.71,2.97c0.19,0.91,0,28.41-0.19,34.11" /></g></g><g><g><path d="M51.06,18.71c1.1,0.37,3.12,0.43,4.23,0.37c9.47-0.5,20.97-2.21,30.85-3.05c1.82-0.15,2.94,0.18,3.86,0.36" /><path d="M67.68,10c0.66,0.34,1.06,1.54,1.19,2.23c0.13,0.69,0.38,9.78,0.25,14.07" /><path d="M54.48,27.52c0.84,0.25,2.37,0.3,3.2,0.25c6.57-0.37,17.07-2.33,24.71-2.75c1.39-0.08,2.23,0.12,2.93,0.25" /></g><g><path d="M42.87,37.94c1.14,0.5,3.42,1.07,5.48,0.64c12.4-2.59,34.4-5.53,42.49-5.94c9.11-0.46,2.31,6.54,0.04,8.61" /></g><g><path d="M51.05,43.78c0.66,0.38,2.82,0.42,3.5,0.38c6.94-0.33,20.9-2.44,26.15-2.83c1.02-0.08,1.96,0.08,2.8,0.39" /><path d="M68.09,43.62c0.37,0.61,0.37,0.97,0.37,1.46c0,3.4-0.01,2.02-0.01,7.84" /><path d="M49.64,54.07c0.62,0.28,2.82,0.48,3.87,0.44c9.74-0.38,18.62-2.42,28.88-2.84c1.68-0.07,3.61-0.24,5.11-0.09" /></g><path d="M44,65.07c1.28,0.59,3.64,0.25,4.93,0.13c8.19-0.81,33.08-4.59,45.07-4.73c2.14-0.03,3.43,0.28,4.5,0.58" /><g><g><path d="M45.79,74.28c0.25,0.28,0.51,0.52,0.62,0.87c0.87,2.79,1.91,9.02,2.5,14.03" /><path d="M47.35,76.17c5.13-1.46,12.37-3.07,15.31-3.43c1.07-0.13,1.72,0.79,1.56,1.58c-0.64,3.26-1.38,6.71-2.32,11.22" /><path d="M49.03,87.71c3.45-0.42,9.71-1.13,14.44-1.77" /></g><g><path d="M70.24,74.68c0.84,0.48,2.37,0.55,3.23,0.48c6.03-0.45,17.28-2.41,22.92-3.06c1.39-0.16,2.24-0.26,2.94-0.02" /><path d="M87.73,65.95c0.05,0.39,0.74,2.02,0.74,4.49c0,16.59-0.15,19.25-0.15,23.29c0,9.79-4.44,1.45-5.74,0.2" /><path d="M73.34,80.63c1.87,1.19,4.84,4.89,5.31,6.74" /></g></g></g></g></g><g fill="none" stroke="#000" stroke-width="3" stroke-linecap="round" stroke-linejoin="round"><path d="M16.61,16.05c0.71,0.36,2.02,0.4,2.73,0.36c4.47-0.25,11.65-1.3,16.18-1.64c1.19-0.09,1.9,0.17,2.5,0.35" stroke-dasharray="21.587" stroke-dashoffset="21.587"><animate attributeName="stroke-dashoffset" values="21.587;21.587;0" dur="0.216s" fill="freeze" begin="0s;79b1.click" /></path><path d="M11.65,34.15c1.09,0.19,3.05,0.1,4.13,0c6.75-0.58,17.01-2,24.78-2.76c1.78-0.17,2.87-0.05,3.77,0.02" stroke-dasharray="32.85" stroke-dashoffset="32.85"><animate attributeName="stroke-dashoffset" values="32.85" fill="freeze" begin="79b1.click" /><animate attributeName="stroke-dashoffset" values="32.85;32.85;0" keyTimes="0;0.397;1" dur="0.544s" fill="freeze" begin="0s;79b1.click" /></path><path d="M27.85,34.93c0.48,0.44,0.77,1.97,0.87,2.85c0.1,0.88,0,51.24-0.1,56.72" stroke-dasharray="59.741" stroke-dashoffset="59.741"><animate attributeName="stroke-dashoffset" values="59.741" fill="freeze" begin="79b1.click" /><animate attributeName="stroke-dashoffset" values="59.741;59.741;0" keyTimes="0;0.477;1" dur="1.141s" fill="freeze" begin="0s;79b1.click" /></path><path d="M18.75,46.25c0.45,1.55,0.44,2.35,0.44,3.66c0,9.6-0.88,22.76-7.63,35.05" stroke-dasharray="39.971" stroke-dashoffset="39.971"><animate attributeName="stroke-dashoffset" values="39.971" fill="freeze" begin="79b1.click" /><animate attributeName="stroke-dashoffset" values="39.971;39.971;0" keyTimes="0;0.74;1" dur="1.541s" fill="freeze" begin="0s;79b1.click" /></path><path d="M36.95,43.25c0.95,0.46,1.52,2.05,1.71,2.97c0.19,0.91,0,28.41-0.19,34.11" stroke-dasharray="37.64" stroke-dashoffset="37.64"><animate attributeName="stroke-dashoffset" values="37.64" fill="freeze" begin="79b1.click" /><animate attributeName="stroke-dashoffset" values="37.64;37.64;0" keyTimes="0;0.804;1" dur="1.917s" fill="freeze" begin="0s;79b1.click" /></path><path d="M51.06,18.71c1.1,0.37,3.12,0.43,4.23,0.37c9.47-0.5,20.97-2.21,30.85-3.05c1.82-0.15,2.94,0.18,3.86,0.36" stroke-dasharray="39.164" stroke-dashoffset="39.164"><animate attributeName="stroke-dashoffset" values="39.164" fill="freeze" begin="79b1.click" /><animate attributeName="stroke-dashoffset" values="39.164;39.164;0" keyTimes="0;0.83;1" dur="2.309s" fill="freeze" begin="0s;79b1.click" /></path><path d="M67.68,10c0.66,0.34,1.06,1.54,1.19,2.23c0.13,0.69,0.38,9.78,0.25,14.07" stroke-dasharray="16.674" stroke-dashoffset="16.674"><animate attributeName="stroke-dashoffset" values="16.674" fill="freeze" begin="79b1.click" /><animate attributeName="stroke-dashoffset" values="16.674;16.674;0" keyTimes="0;0.933;1" dur="2.476s" fill="freeze" begin="0s;79b1.click" /></path><path d="M54.48,27.52c0.84,0.25,2.37,0.3,3.2,0.25c6.57-0.37,17.07-2.33,24.71-2.75c1.39-0.08,2.23,0.12,2.93,0.25" stroke-dasharray="31.041" stroke-dashoffset="31.041"><animate attributeName="stroke-dashoffset" values="31.041" fill="freeze" begin="79b1.click" /><animate attributeName="stroke-dashoffset" values="31.041;31.041;0" keyTimes="0;0.889;1" dur="2.786s" fill="freeze" begin="0s;79b1.click" /></path><path d="M42.87,37.94c1.14,0.5,3.42,1.07,5.48,0.64c12.4-2.59,34.4-5.53,42.49-5.94c9.11-0.46,2.31,6.54,0.04,8.61" stroke-dasharray="62.348" stroke-dashoffset="62.348"><animate attributeName="stroke-dashoffset" values="62.348" fill="freeze" begin="79b1.click" /><animate attributeName="stroke-dashoffset" values="62.348;62.348;0" keyTimes="0;0.856;1" dur="3.255s" fill="freeze" begin="0s;79b1.click" /></path><path d="M51.05,43.78c0.66,0.38,2.82,0.42,3.5,0.38c6.94-0.33,20.9-2.44,26.15-2.83c1.02-0.08,1.96,0.08,2.8,0.39" stroke-dasharray="32.704" stroke-dashoffset="32.704"><animate attributeName="stroke-dashoffset" values="32.704" fill="freeze" begin="79b1.click" /><animate attributeName="stroke-dashoffset" values="32.704;32.704;0" keyTimes="0;0.909;1" dur="3.582s" fill="freeze" begin="0s;79b1.click" /></path><path d="M68.09,43.62c0.37,0.61,0.37,0.97,0.37,1.46c0,3.4-0.01,2.02-0.01,7.84" stroke-dasharray="9.373" stroke-dashoffset="9.373"><animate attributeName="stroke-dashoffset" values="9.373" fill="freeze" begin="79b1.click" /><animate attributeName="stroke-dashoffset" values="9.373;9.373;0" keyTimes="0;0.95;1" dur="3.769s" fill="freeze" begin="0s;79b1.click" /></path><path d="M49.64,54.07c0.62,0.28,2.82,0.48,3.87,0.44c9.74-0.38,18.62-2.42,28.88-2.84c1.68-0.07,3.61-0.24,5.11-0.09" stroke-dasharray="38.057" stroke-dashoffset="38.057"><animate attributeName="stroke-dashoffset" values="38.057" fill="freeze" begin="79b1.click" /><animate attributeName="stroke-dashoffset" values="38.057;38.057;0" keyTimes="0;0.908;1" dur="4.15s" fill="freeze" begin="0s;79b1.click" /></path><path d="M44,65.07c1.28,0.59,3.64,0.25,4.93,0.13c8.19-0.81,33.08-4.59,45.07-4.73c2.14-0.03,3.43,0.28,4.5,0.58" stroke-dasharray="54.872" stroke-dashoffset="54.872"><animate attributeName="stroke-dashoffset" values="54.872" fill="freeze" begin="79b1.click" /><animate attributeName="stroke-dashoffset" values="54.872;54.872;0" keyTimes="0;0.883;1" dur="4.699s" fill="freeze" begin="0s;79b1.click" /></path><path d="M45.79,74.28c0.25,0.28,0.51,0.52,0.62,0.87c0.87,2.79,1.91,9.02,2.5,14.03" stroke-dasharray="15.343" stroke-dashoffset="15.343"><animate attributeName="stroke-dashoffset" values="15.343" fill="freeze" begin="79b1.click" /><animate attributeName="stroke-dashoffset" values="15.343;15.343;0" keyTimes="0;0.968;1" dur="4.852s" fill="freeze" begin="0s;79b1.click" /></path><path d="M47.35,76.17c5.13-1.46,12.37-3.07,15.31-3.43c1.07-0.13,1.72,0.79,1.56,1.58c-0.64,3.26-1.38,6.71-2.32,11.22" stroke-dasharray="29.752" stroke-dashoffset="29.752"><animate attributeName="stroke-dashoffset" values="29.752" fill="freeze" begin="79b1.click" /><animate attributeName="stroke-dashoffset" values="29.752;29.752;0" keyTimes="0;0.942;1" dur="5.15s" fill="freeze" begin="0s;79b1.click" /></path><path d="M49.03,87.71c3.45-0.42,9.71-1.13,14.44-1.77" stroke-dasharray="14.549" stroke-dashoffset="14.549"><animate attributeName="stroke-dashoffset" values="14.549" fill="freeze" begin="79b1.click" /><animate attributeName="stroke-dashoffset" values="14.549;14.549;0" keyTimes="0;0.947;1" dur="5.441s" fill="freeze" begin="0s;79b1.click" /></path><path d="M70.24,74.68c0.84,0.48,2.37,0.55,3.23,0.48c6.03-0.45,17.28-2.41,22.92-3.06c1.39-0.16,2.24-0.26,2.94-0.02" stroke-dasharray="29.394" stroke-dashoffset="29.394"><animate attributeName="stroke-dashoffset" values="29.394" fill="freeze" begin="79b1.click" /><animate attributeName="stroke-dashoffset" values="29.394;29.394;0" keyTimes="0;0.949;1" dur="5.735s" fill="freeze" begin="0s;79b1.click" /></path><path d="M87.73,65.95c0.05,0.39,0.74,2.02,0.74,4.49c0,16.59-0.15,19.25-0.15,23.29c0,9.79-4.44,1.45-5.74,0.2" stroke-dasharray="39.487" stroke-dashoffset="39.487"><animate attributeName="stroke-dashoffset" values="39.487" fill="freeze" begin="79b1.click" /><animate attributeName="stroke-dashoffset" values="39.487;39.487;0" keyTimes="0;0.936;1" dur="6.13s" fill="freeze" begin="0s;79b1.click" /></path><path d="M73.34,80.63c1.87,1.19,4.84,4.89,5.31,6.74" stroke-dasharray="8.697" stroke-dashoffset="8.697"><animate attributeName="stroke-dashoffset" values="8.697" fill="freeze" begin="79b1.click" /><animate attributeName="stroke-dashoffset" values="8.697;8.697;0" keyTimes="0;0.972;1" dur="6.304s" fill="freeze" begin="0s;79b1.click" /></path></g></svg>