<svg xmlns="http://www.w3.org/2000/svg" viewBox="0 0 109 109" id="7c1e"><g fill="none" stroke="#a6a6a6" stroke-width="6" stroke-linecap="round" stroke-linejoin="round"><g><g><g><path d="M32.5,9.75c0.04,0.45,0.08,1.17-0.08,1.82C31.46,15.41,25.99,23.84,18.5,29" /><path d="M29.73,19.79c3.71,0,17.61-3.29,21.77-3.29" /><path d="M34.77,21.58c1.87,1.3,4.83,5.36,5.29,7.38" /></g><g><path d="M61.25,9c0.02,0.36,0.1,0.94-0.05,1.44c-1.07,3.78-4.03,9.17-7.96,13.81" /><path d="M61.98,17.16c4.73,0,22.08-3.57,27.4-3.57" /><path d="M74.27,17.75c0.02,0.22,0.04,0.58-0.04,0.9c-0.45,1.9-3,6.06-6.49,8.6" /></g></g><g><g><path d="M24.14,33.87c0.4,0.23,0.85,0.42,0.98,0.73c1.13,2.7,2.56,8.38,3.69,12.35" /><path d="M26.6,35.46c7.31-0.57,13.59-1.71,20.33-2.29c1.69-0.14,2.71,0.67,2.47,1.32c-1.01,2.73-1.38,4.34-3.17,8.88" /><path d="M29.63,45.54c5.45-0.35,11.32-1.29,18.8-1.83" /></g><g><path d="M56.64,32.51c0.35,0.25,0.75,0.45,0.86,0.78c0.99,2.88,2.75,7.22,3.75,11.45" /><path d="M57.81,33.51c6.44-0.61,17.48-1.78,23.42-2.4c1.49-0.15,2.39,0.71,2.18,1.41c-0.89,2.91-2.16,4.6-3.74,9.44" /><path d="M60.97,43.22c4.8-0.37,14.1-0.67,20.69-1.24" /></g><g><g p6:partial xmlns:p6="http://kanjivg.tagaini.net"><path d="M28.17,51.82c0.34,0.4,1.34,2.18,1.53,2.68c1.52,4.14,2.44,11.9,3.4,19.58" /><path d="M29.73,52.48c12.63-1.39,38.98-3.77,47.68-4.48c3.19-0.26,5.12,0.56,5.03,2.3c-0.22,4.14-3.75,17.68-4.32,19.41" /><path d="M32.88,61.16c3.79-0.33,44.02-3.11,47.15-3.22" /><path d="M33.68,72.31c10.99-1.32,32.5-3.03,44.53-3.84" /></g></g><path d="M17.98,83.57c1.38,0.56,3.92,0.69,5.31,0.56c9.21-0.88,49.38-4.61,66.63-5.37c2.3-0.1,3.69,0.27,4.84,0.54" /><g><path d="M54.47,51.75c0.58,0.3,0.94,1.14,0.95,2.17c0.04,5.2,0.17,45.9,0.19,47.6" /></g></g></g></g><g fill="none" stroke="#000" stroke-width="3" stroke-linecap="round" stroke-linejoin="round"><path d="M32.5,9.75c0.04,0.45,0.08,1.17-0.08,1.82C31.46,15.41,25.99,23.84,18.5,29" stroke-dasharray="24.479" stroke-dashoffset="24.479"><animate attributeName="stroke-dashoffset" values="24.479;24.479;0" dur="0.245s" fill="freeze" begin="0s;7c1e.click" /></path><path d="M29.73,19.79c3.71,0,17.61-3.29,21.77-3.29" stroke-dasharray="22.036" stroke-dashoffset="22.036"><animate attributeName="stroke-dashoffset" values="22.036" fill="freeze" begin="7c1e.click" /><animate attributeName="stroke-dashoffset" values="22.036;22.036;0" keyTimes="0;0.527;1" dur="0.465s" fill="freeze" begin="0s;7c1e.click" /></path><path d="M34.77,21.58c1.87,1.3,4.83,5.36,5.29,7.38" stroke-dasharray="9.199" stroke-dashoffset="9.199"><animate attributeName="stroke-dashoffset" values="9.199" fill="freeze" begin="7c1e.click" /><animate attributeName="stroke-dashoffset" values="9.199;9.199;0" keyTimes="0;0.716;1" dur="0.649s" fill="freeze" begin="0s;7c1e.click" /></path><path d="M61.25,9c0.02,0.36,0.1,0.94-0.05,1.44c-1.07,3.78-4.03,9.17-7.96,13.81" stroke-dasharray="17.493" stroke-dashoffset="17.493"><animate attributeName="stroke-dashoffset" values="17.493" fill="freeze" begin="7c1e.click" /><animate attributeName="stroke-dashoffset" values="17.493;17.493;0" keyTimes="0;0.788;1" dur="0.824s" fill="freeze" begin="0s;7c1e.click" /></path><path d="M61.98,17.16c4.73,0,22.08-3.57,27.4-3.57" stroke-dasharray="27.65" stroke-dashoffset="27.65"><animate attributeName="stroke-dashoffset" values="27.65" fill="freeze" begin="7c1e.click" /><animate attributeName="stroke-dashoffset" values="27.65;27.65;0" keyTimes="0;0.749;1" dur="1.1s" fill="freeze" begin="0s;7c1e.click" /></path><path d="M74.27,17.75c0.02,0.22,0.04,0.58-0.04,0.9c-0.45,1.9-3,6.06-6.49,8.6" stroke-dasharray="11.841" stroke-dashoffset="11.841"><animate attributeName="stroke-dashoffset" values="11.841" fill="freeze" begin="7c1e.click" /><animate attributeName="stroke-dashoffset" values="11.841;11.841;0" keyTimes="0;0.823;1" dur="1.337s" fill="freeze" begin="0s;7c1e.click" /></path><path d="M24.14,33.87c0.4,0.23,0.85,0.42,0.98,0.73c1.13,2.7,2.56,8.38,3.69,12.35" stroke-dasharray="14.139" stroke-dashoffset="14.139"><animate attributeName="stroke-dashoffset" values="14.139" fill="freeze" begin="7c1e.click" /><animate attributeName="stroke-dashoffset" values="14.139;14.139;0" keyTimes="0;0.825;1" dur="1.62s" fill="freeze" begin="0s;7c1e.click" /></path><path d="M26.6,35.46c7.31-0.57,13.59-1.71,20.33-2.29c1.69-0.14,2.71,0.67,2.47,1.32c-1.01,2.73-1.38,4.34-3.17,8.88" stroke-dasharray="33.092" stroke-dashoffset="33.092"><animate attributeName="stroke-dashoffset" values="33.092" fill="freeze" begin="7c1e.click" /><animate attributeName="stroke-dashoffset" values="33.092;33.092;0" keyTimes="0;0.83;1" dur="1.951s" fill="freeze" begin="0s;7c1e.click" /></path><path d="M29.63,45.54c5.45-0.35,11.32-1.29,18.8-1.83" stroke-dasharray="18.891" stroke-dashoffset="18.891"><animate attributeName="stroke-dashoffset" values="18.891" fill="freeze" begin="7c1e.click" /><animate attributeName="stroke-dashoffset" values="18.891;18.891;0" keyTimes="0;0.912;1" dur="2.14s" fill="freeze" begin="0s;7c1e.click" /></path><path d="M56.64,32.51c0.35,0.25,0.75,0.45,0.86,0.78c0.99,2.88,2.75,7.22,3.75,11.45" stroke-dasharray="13.237" stroke-dashoffset="13.237"><animate attributeName="stroke-dashoffset" values="13.237" fill="freeze" begin="7c1e.click" /><animate attributeName="stroke-dashoffset" values="13.237;13.237;0" keyTimes="0;0.89;1" dur="2.405s" fill="freeze" begin="0s;7c1e.click" /></path><path d="M57.81,33.51c6.44-0.61,17.48-1.78,23.42-2.4c1.49-0.15,2.39,0.71,2.18,1.41c-0.89,2.91-2.16,4.6-3.74,9.44" stroke-dasharray="36.708" stroke-dashoffset="36.708"><animate attributeName="stroke-dashoffset" values="36.708" fill="freeze" begin="7c1e.click" /><animate attributeName="stroke-dashoffset" values="36.708;36.708;0" keyTimes="0;0.868;1" dur="2.772s" fill="freeze" begin="0s;7c1e.click" /></path><path d="M60.97,43.22c4.8-0.37,14.1-0.67,20.69-1.24" stroke-dasharray="20.729" stroke-dashoffset="20.729"><animate attributeName="stroke-dashoffset" values="20.729" fill="freeze" begin="7c1e.click" /><animate attributeName="stroke-dashoffset" values="20.729;20.729;0" keyTimes="0;0.931;1" dur="2.979s" fill="freeze" begin="0s;7c1e.click" /></path><path d="M28.17,51.82c0.34,0.4,1.34,2.18,1.53,2.68c1.52,4.14,2.44,11.9,3.4,19.58" stroke-dasharray="22.997" stroke-dashoffset="22.997"><animate attributeName="stroke-dashoffset" values="22.997" fill="freeze" begin="7c1e.click" /><animate attributeName="stroke-dashoffset" values="22.997;22.997;0" keyTimes="0;0.928;1" dur="3.209s" fill="freeze" begin="0s;7c1e.click" /></path><path d="M29.73,52.48c12.63-1.39,38.98-3.77,47.68-4.48c3.19-0.26,5.12,0.56,5.03,2.3c-0.22,4.14-3.75,17.68-4.32,19.41" stroke-dasharray="74.058" stroke-dashoffset="74.058"><animate attributeName="stroke-dashoffset" values="74.058" fill="freeze" begin="7c1e.click" /><animate attributeName="stroke-dashoffset" values="74.058;74.058;0" keyTimes="0;0.852;1" dur="3.766s" fill="freeze" begin="0s;7c1e.click" /></path><path d="M32.88,61.16c3.79-0.33,44.02-3.11,47.15-3.22" stroke-dasharray="47.261" stroke-dashoffset="47.261"><animate attributeName="stroke-dashoffset" values="47.261" fill="freeze" begin="7c1e.click" /><animate attributeName="stroke-dashoffset" values="47.261;47.261;0" keyTimes="0;0.888;1" dur="4.239s" fill="freeze" begin="0s;7c1e.click" /></path><path d="M33.68,72.31c10.99-1.32,32.5-3.03,44.53-3.84" stroke-dasharray="44.7" stroke-dashoffset="44.7"><animate attributeName="stroke-dashoffset" values="44.7" fill="freeze" begin="7c1e.click" /><animate attributeName="stroke-dashoffset" values="44.7;44.7;0" keyTimes="0;0.905;1" dur="4.686s" fill="freeze" begin="0s;7c1e.click" /></path><path d="M17.98,83.57c1.38,0.56,3.92,0.69,5.31,0.56c9.21-0.88,49.38-4.61,66.63-5.37c2.3-0.1,3.69,0.27,4.84,0.54" stroke-dasharray="77.118" stroke-dashoffset="77.118"><animate attributeName="stroke-dashoffset" values="77.118" fill="freeze" begin="7c1e.click" /><animate attributeName="stroke-dashoffset" values="77.118;77.118;0" keyTimes="0;0.89;1" dur="5.266s" fill="freeze" begin="0s;7c1e.click" /></path><path d="M54.47,51.75c0.58,0.3,0.94,1.14,0.95,2.17c0.04,5.2,0.17,45.9,0.19,47.6" stroke-dasharray="50.079" stroke-dashoffset="50.079"><animate attributeName="stroke-dashoffset" values="50.079" fill="freeze" begin="7c1e.click" /><animate attributeName="stroke-dashoffset" values="50.079;50.079;0" keyTimes="0;0.913;1" dur="5.767s" fill="freeze" begin="0s;7c1e.click" /></path></g></svg>