<svg xmlns="http://www.w3.org/2000/svg" viewBox="0 0 109 109" id="7e61"><g fill="none" stroke="#a6a6a6" stroke-width="6" stroke-linecap="round" stroke-linejoin="round"><g><g><path d="M24.9,13.75c0.31,1.21,0.59,2.24-0.16,3.44c-3.26,5.27-7.21,13.46-10.32,16.29c-0.64,0.58-0.62,2.81,0,3.04c3.26,1.21,7.84,3.24,10.64,5.47" /><path d="M34.03,24.69c0.29,0.55,0.37,2.35,0,2.94C28.5,36.5,20.25,50.75,12.65,58.61c-1.74,1.8,0.43,2.83,1.57,2.47c4.75-1.53,16.62-5.77,22.73-7.24" /><path d="M34.5,48.5c2.29,2.34,5.93,9.61,6.5,13.25" /><path d="M26.02,60.76c0.06,0.29,0.82,1.52,0.88,3.37c0.28,8.88-0.18,31.1-0.18,34.12" /><path d="M17,69.25c0.11,0.9,0.09,2.68-0.11,3.32c-1.35,4.21-4.73,12.32-6.64,15.93" /><path d="M33.25,67.25c3.12,4.02,5.52,13.36,6.25,17" /></g><g><g p5:partial xmlns:p5="http://kanjivg.tagaini.net"><g><path d="M49.73,21.75c2.07,0.25,3.06,0.66,4.97,0.5c11.59-1,20.87-2.75,29.97-2.75c2.69,0,3.73,1.25,3.31,3.75c-1.08,6.54-1.86,9.5-2.07,16" /><path d="M43.83,31.61c1.58,0.2,2.82,0.59,4.57,0.41c15.28-1.62,34.09-3.65,46.21-4.26c1.94-0.1,3.51,0.41,4.39,0.61" /><path d="M49.54,41.68c1.03,0.15,2.9,0.54,4.14,0.46c11.38-0.76,19.11-2.48,29.46-2.79c1.65-0.05,2.69,0,3.93,0.15" /></g><g><path d="M67.32,11.25c1.04,0.5,1.66,2.25,1.86,3.25c0.21,1,0,77.25-0.21,83.5" /></g></g><path d="M47.48,49.17c0.29,1.37,0.7,2.44,0.7,4.15c0,15.61-0.51,37.92-10.39,44.65" /><path d="M58.5,47.26c0.56,0.59,1,1.28,1,3.23c0,2.51-0.01,4.52-0.01,7.71" /><path d="M48.49,58.98c2.66-0.16,10.14-1.13,12.55-1.13" /><path d="M79.25,45.62c0.74,0.41,1.25,0.9,1.32,2.27c0.09,2.05-0.17,4.49-0.39,6.64c-0.07,0.68,0.13,1.71,1.23,1.6c3.87-0.38,7.15-0.88,11.63-1.18" /><path d="M91.59,44.33c0.95,0.59,1.62,1.28,1.7,3.23c0.39,9.36-0.02,46.75-0.02,49.94" /><path d="M48.08,68.38c9.04-0.63,39.7-3.27,45.03-3.27" /><path d="M47.42,77.87c3.85-0.37,5.46-0.62,8.71-1.45c2.62-0.67,3.14,0.96,3.14,1.93s-0.48,15.83-0.48,16.79" /><path d="M77.79,75.42c0.79,0.08,1.31,0.36,2.23,0.26c4.05-0.42,10.6-0.58,13.35-0.71" /><path d="M81.32,76.22c0,4.92-0.02,14.56-0.02,17.74" /></g></g></g><g fill="none" stroke="#000" stroke-width="3" stroke-linecap="round" stroke-linejoin="round"><path d="M24.9,13.75c0.31,1.21,0.59,2.24-0.16,3.44c-3.26,5.27-7.21,13.46-10.32,16.29c-0.64,0.58-0.62,2.81,0,3.04c3.26,1.21,7.84,3.24,10.64,5.47" stroke-dasharray="38.196" stroke-dashoffset="38.196"><animate attributeName="stroke-dashoffset" values="38.196;38.196;0" dur="0.382s" fill="freeze" begin="0s;7e61.click" /></path><path d="M34.03,24.69c0.29,0.55,0.37,2.35,0,2.94C28.5,36.5,20.25,50.75,12.65,58.61c-1.74,1.8,0.43,2.83,1.57,2.47c4.75-1.53,16.62-5.77,22.73-7.24" stroke-dasharray="68.908" stroke-dashoffset="68.908"><animate attributeName="stroke-dashoffset" values="68.908" fill="freeze" begin="7e61.click" /><animate attributeName="stroke-dashoffset" values="68.908;68.908;0" keyTimes="0;0.424;1" dur="0.9s" fill="freeze" begin="0s;7e61.click" /></path><path d="M34.5,48.5c2.29,2.34,5.93,9.61,6.5,13.25" stroke-dasharray="14.892" stroke-dashoffset="14.892"><animate attributeName="stroke-dashoffset" values="14.892" fill="freeze" begin="7e61.click" /><animate attributeName="stroke-dashoffset" values="14.892;14.892;0" keyTimes="0;0.751;1" dur="1.198s" fill="freeze" begin="0s;7e61.click" /></path><path d="M26.02,60.76c0.06,0.29,0.82,1.52,0.88,3.37c0.28,8.88-0.18,31.1-0.18,34.12" stroke-dasharray="37.63" stroke-dashoffset="37.63"><animate attributeName="stroke-dashoffset" values="37.63" fill="freeze" begin="7e61.click" /><animate attributeName="stroke-dashoffset" values="37.63;37.63;0" keyTimes="0;0.761;1" dur="1.574s" fill="freeze" begin="0s;7e61.click" /></path><path d="M17,69.25c0.11,0.9,0.09,2.68-0.11,3.32c-1.35,4.21-4.73,12.32-6.64,15.93" stroke-dasharray="20.609" stroke-dashoffset="20.609"><animate attributeName="stroke-dashoffset" values="20.609" fill="freeze" begin="7e61.click" /><animate attributeName="stroke-dashoffset" values="20.609;20.609;0" keyTimes="0;0.884;1" dur="1.78s" fill="freeze" begin="0s;7e61.click" /></path><path d="M33.25,67.25c3.12,4.02,5.52,13.36,6.25,17" stroke-dasharray="18.228" stroke-dashoffset="18.228"><animate attributeName="stroke-dashoffset" values="18.228" fill="freeze" begin="7e61.click" /><animate attributeName="stroke-dashoffset" values="18.228;18.228;0" keyTimes="0;0.907;1" dur="1.962s" fill="freeze" begin="0s;7e61.click" /></path><path d="M49.73,21.75c2.07,0.25,3.06,0.66,4.97,0.5c11.59-1,20.87-2.75,29.97-2.75c2.69,0,3.73,1.25,3.31,3.75c-1.08,6.54-1.86,9.5-2.07,16" stroke-dasharray="57.287" stroke-dashoffset="57.287"><animate attributeName="stroke-dashoffset" values="57.287" fill="freeze" begin="7e61.click" /><animate attributeName="stroke-dashoffset" values="57.287;57.287;0" keyTimes="0;0.774;1" dur="2.535s" fill="freeze" begin="0s;7e61.click" /></path><path d="M43.83,31.61c1.58,0.2,2.82,0.59,4.57,0.41c15.28-1.62,34.09-3.65,46.21-4.26c1.94-0.1,3.51,0.41,4.39,0.61" stroke-dasharray="55.467" stroke-dashoffset="55.467"><animate attributeName="stroke-dashoffset" values="55.467" fill="freeze" begin="7e61.click" /><animate attributeName="stroke-dashoffset" values="55.467;55.467;0" keyTimes="0;0.82;1" dur="3.09s" fill="freeze" begin="0s;7e61.click" /></path><path d="M49.54,41.68c1.03,0.15,2.9,0.54,4.14,0.46c11.38-0.76,19.11-2.48,29.46-2.79c1.65-0.05,2.69,0,3.93,0.15" stroke-dasharray="37.712" stroke-dashoffset="37.712"><animate attributeName="stroke-dashoffset" values="37.712" fill="freeze" begin="7e61.click" /><animate attributeName="stroke-dashoffset" values="37.712;37.712;0" keyTimes="0;0.891;1" dur="3.467s" fill="freeze" begin="0s;7e61.click" /></path><path d="M67.32,11.25c1.04,0.5,1.66,2.25,1.86,3.25c0.21,1,0,77.25-0.21,83.5" stroke-dasharray="87.357" stroke-dashoffset="87.357"><animate attributeName="stroke-dashoffset" values="87.357" fill="freeze" begin="7e61.click" /><animate attributeName="stroke-dashoffset" values="87.357;87.357;0" keyTimes="0;0.841;1" dur="4.124s" fill="freeze" begin="0s;7e61.click" /></path><path d="M47.48,49.17c0.29,1.37,0.7,2.44,0.7,4.15c0,15.61-0.51,37.92-10.39,44.65" stroke-dasharray="51.467" stroke-dashoffset="51.467"><animate attributeName="stroke-dashoffset" values="51.467" fill="freeze" begin="7e61.click" /><animate attributeName="stroke-dashoffset" values="51.467;51.467;0" keyTimes="0;0.889;1" dur="4.639s" fill="freeze" begin="0s;7e61.click" /></path><path d="M58.5,47.26c0.56,0.59,1,1.28,1,3.23c0,2.51-0.01,4.52-0.01,7.71" stroke-dasharray="11.19" stroke-dashoffset="11.19"><animate attributeName="stroke-dashoffset" values="11.19" fill="freeze" begin="7e61.click" /><animate attributeName="stroke-dashoffset" values="11.19;11.19;0" keyTimes="0;0.954;1" dur="4.863s" fill="freeze" begin="0s;7e61.click" /></path><path d="M48.49,58.98c2.66-0.16,10.14-1.13,12.55-1.13" stroke-dasharray="12.604" stroke-dashoffset="12.604"><animate attributeName="stroke-dashoffset" values="12.604" fill="freeze" begin="7e61.click" /><animate attributeName="stroke-dashoffset" values="12.604;12.604;0" keyTimes="0;0.951;1" dur="5.115s" fill="freeze" begin="0s;7e61.click" /></path><path d="M79.25,45.62c0.74,0.41,1.25,0.9,1.32,2.27c0.09,2.05-0.17,4.49-0.39,6.64c-0.07,0.68,0.13,1.71,1.23,1.6c3.87-0.38,7.15-0.88,11.63-1.18" stroke-dasharray="23.499" stroke-dashoffset="23.499"><animate attributeName="stroke-dashoffset" values="23.499" fill="freeze" begin="7e61.click" /><animate attributeName="stroke-dashoffset" values="23.499;23.499;0" keyTimes="0;0.956;1" dur="5.35s" fill="freeze" begin="0s;7e61.click" /></path><path d="M91.59,44.33c0.95,0.59,1.62,1.28,1.7,3.23c0.39,9.36-0.02,46.75-0.02,49.94" stroke-dasharray="53.785" stroke-dashoffset="53.785"><animate attributeName="stroke-dashoffset" values="53.785" fill="freeze" begin="7e61.click" /><animate attributeName="stroke-dashoffset" values="53.785;53.785;0" keyTimes="0;0.909;1" dur="5.888s" fill="freeze" begin="0s;7e61.click" /></path><path d="M48.08,68.38c9.04-0.63,39.7-3.27,45.03-3.27" stroke-dasharray="45.153" stroke-dashoffset="45.153"><animate attributeName="stroke-dashoffset" values="45.153" fill="freeze" begin="7e61.click" /><animate attributeName="stroke-dashoffset" values="45.153;45.153;0" keyTimes="0;0.929;1" dur="6.34s" fill="freeze" begin="0s;7e61.click" /></path><path d="M47.42,77.87c3.85-0.37,5.46-0.62,8.71-1.45c2.62-0.67,3.14,0.96,3.14,1.93s-0.48,15.83-0.48,16.79" stroke-dasharray="30.064" stroke-dashoffset="30.064"><animate attributeName="stroke-dashoffset" values="30.064" fill="freeze" begin="7e61.click" /><animate attributeName="stroke-dashoffset" values="30.064;30.064;0" keyTimes="0;0.955;1" dur="6.641s" fill="freeze" begin="0s;7e61.click" /></path><path d="M77.79,75.42c0.79,0.08,1.31,0.36,2.23,0.26c4.05-0.42,10.6-0.58,13.35-0.71" stroke-dasharray="15.627" stroke-dashoffset="15.627"><animate attributeName="stroke-dashoffset" values="15.627" fill="freeze" begin="7e61.click" /><animate attributeName="stroke-dashoffset" values="15.627;15.627;0" keyTimes="0;0.977;1" dur="6.797s" fill="freeze" begin="0s;7e61.click" /></path><path d="M81.32,76.22c0,4.92-0.02,14.56-0.02,17.74" stroke-dasharray="17.741" stroke-dashoffset="17.741"><animate attributeName="stroke-dashoffset" values="17.741" fill="freeze" begin="7e61.click" /><animate attributeName="stroke-dashoffset" values="17.741;17.741;0" keyTimes="0;0.975;1" dur="6.974s" fill="freeze" begin="0s;7e61.click" /></path></g></svg>