<svg xmlns="http://www.w3.org/2000/svg" viewBox="0 0 109 109" id="7e6b"><g fill="none" stroke="#a6a6a6" stroke-width="6" stroke-linecap="round" stroke-linejoin="round"><g><g><g><g><path d="M17.06,17.84c0.61,0.21,1.71,0.23,2.32,0.21c7.37-0.27,18.87-1.4,27.45-1.95c1.01-0.06,1.61,0.1,2.12,0.21" /><path d="M19.49,24.31c0.44,0.26,1,1.23,1.08,1.57c0.6,2.47,1.31,7.79,2.15,12.47" /><path d="M21.18,25.25c6.69-0.5,22-2.45,26.57-2.52c1.89-0.03,2.28,0.68,2.2,1.45c-0.28,2.66-1.96,7.97-3.46,12.33" /><path d="M22.76,31.42c5.05-0.13,16.08-2.4,25.59-2.4" /><path d="M22.76,37.58c5.86-0.51,16.59-2.52,24.23-2.52" /><path d="M13.22,45.18c0.8,0.4,2.26,0.45,3.08,0.4c11.46-0.73,22.97-2.73,32.43-2.98c1.34-0.04,2.14,0.19,2.81,0.39" /><path d="M33.39,10.13c0.41,0.31,1.29,2.29,1.37,2.91c0.08,0.61-0.05,39.51-0.14,43.34" /></g><path d="M18.52,50.68c0.32,0.19,0.68,0.99,0.64,1.37c-0.21,1.68-0.2,1.74-1.05,5.16c-0.21,0.84-0.16,1.69,0.63,1.58c2.84-0.42,23.52-2.42,27.51-2.52" /><path d="M46.87,48.26c0.32,0.19,0.69,1.41,0.64,1.79c-0.31,2.31-0.63,3.14-1.16,7.44" /></g><g><g><g><path d="M60.75,12.13c0.22,0.46,0.44,1.47,0.43,2.14c-0.17,6.97-1.87,14.99-6.87,17.92" /></g><path d="M62.15,13.41c1.6,0.18,10.49-1.97,11.56-2.33c1.6-0.54,2.41,1.15,2.24,2.35c-0.32,2.35-0.98,6.33-0.98,8.68c0,3.25,0.52,5.6,7.09,5.6c6.25,0,7.59-0.36,7.59-7.05" /></g><g><path d="M59.45,36.28c0.96,0.21,1.08,0.54,3.01,0.21c1.92-0.32,14.17-1.75,15.49-2.08c1.32-0.32,2.55,1.36,1.8,2.36c-7.5,10.11-11.7,13.29-23.25,18.62" /><path d="M58.85,41.73c2.95,0.37,17.38,10.15,27.66,14.16c1.6,0.62,2.77,1.04,4.26,1.25" /></g></g></g><g><path d="M51.87,56c0.36,0.67,0.56,1.18-0.18,1.9c-3.26,3.12-9.28,8.04-12.9,9.6c-0.74,0.32-0.72,1.55,0,1.67c3.8,0.67,7.97,1.78,11.23,3.01" /><path d="M67.75,59.97c0.25,0.51-0.3,1.49-1,1.89C56,68.05,46.25,75.03,32.5,81.72c-1.66,0.81-1,1.26,1,1.01c8.36-1.06,32.75-4.46,43.5-5.47" /><path d="M70.75,71.5c4.32,2.06,11.17,8.46,12.25,11.66" /><path d="M53.5,82.23c0.09,0.13,1.17,0.68,1.26,1.51c0.4,3.99-0.26,15.9-0.26,17.26" /><path d="M41.2,87.87c0.32,0.53,0.27,2.26-0.32,2.64c-3.89,2.47-13.62,7.23-19.13,9.34" /><path d="M69.41,87.17c5.43,2.24,14.75,8.22,16.69,10.46" /></g></g></g><g fill="none" stroke="#000" stroke-width="3" stroke-linecap="round" stroke-linejoin="round"><path d="M17.06,17.84c0.61,0.21,1.71,0.23,2.32,0.21c7.37-0.27,18.87-1.4,27.45-1.95c1.01-0.06,1.61,0.1,2.12,0.21" stroke-dasharray="32" stroke-dashoffset="32"><animate attributeName="stroke-dashoffset" values="32;32;0" dur="0.32s" fill="freeze" begin="0s;7e6b.click" /></path><path d="M19.49,24.31c0.44,0.26,1,1.23,1.08,1.57c0.6,2.47,1.31,7.79,2.15,12.47" stroke-dasharray="14.59" stroke-dashoffset="14.59"><animate attributeName="stroke-dashoffset" values="14.59" fill="freeze" begin="7e6b.click" /><animate attributeName="stroke-dashoffset" values="14.59;14.59;0" keyTimes="0;0.523;1" dur="0.612s" fill="freeze" begin="0s;7e6b.click" /></path><path d="M21.18,25.25c6.69-0.5,22-2.45,26.57-2.52c1.89-0.03,2.28,0.68,2.2,1.45c-0.28,2.66-1.96,7.97-3.46,12.33" stroke-dasharray="42.578" stroke-dashoffset="42.578"><animate attributeName="stroke-dashoffset" values="42.578" fill="freeze" begin="7e6b.click" /><animate attributeName="stroke-dashoffset" values="42.578;42.578;0" keyTimes="0;0.59;1" dur="1.038s" fill="freeze" begin="0s;7e6b.click" /></path><path d="M22.76,31.42c5.05-0.13,16.08-2.4,25.59-2.4" stroke-dasharray="25.72" stroke-dashoffset="25.72"><animate attributeName="stroke-dashoffset" values="25.72" fill="freeze" begin="7e6b.click" /><animate attributeName="stroke-dashoffset" values="25.72;25.72;0" keyTimes="0;0.802;1" dur="1.295s" fill="freeze" begin="0s;7e6b.click" /></path><path d="M22.76,37.58c5.86-0.51,16.59-2.52,24.23-2.52" stroke-dasharray="24.376" stroke-dashoffset="24.376"><animate attributeName="stroke-dashoffset" values="24.376" fill="freeze" begin="7e6b.click" /><animate attributeName="stroke-dashoffset" values="24.376;24.376;0" keyTimes="0;0.841;1" dur="1.539s" fill="freeze" begin="0s;7e6b.click" /></path><path d="M13.22,45.18c0.8,0.4,2.26,0.45,3.08,0.4c11.46-0.73,22.97-2.73,32.43-2.98c1.34-0.04,2.14,0.19,2.81,0.39" stroke-dasharray="38.56" stroke-dashoffset="38.56"><animate attributeName="stroke-dashoffset" values="38.56" fill="freeze" begin="7e6b.click" /><animate attributeName="stroke-dashoffset" values="38.56;38.56;0" keyTimes="0;0.799;1" dur="1.925s" fill="freeze" begin="0s;7e6b.click" /></path><path d="M33.39,10.13c0.41,0.31,1.29,2.29,1.37,2.91c0.08,0.61-0.05,39.51-0.14,43.34" stroke-dasharray="46.587" stroke-dashoffset="46.587"><animate attributeName="stroke-dashoffset" values="46.587" fill="freeze" begin="7e6b.click" /><animate attributeName="stroke-dashoffset" values="46.587;46.587;0" keyTimes="0;0.805;1" dur="2.391s" fill="freeze" begin="0s;7e6b.click" /></path><path d="M18.52,50.68c0.32,0.19,0.68,0.99,0.64,1.37c-0.21,1.68-0.2,1.74-1.05,5.16c-0.21,0.84-0.16,1.69,0.63,1.58c2.84-0.42,23.52-2.42,27.51-2.52" stroke-dasharray="36.528" stroke-dashoffset="36.528"><animate attributeName="stroke-dashoffset" values="36.528" fill="freeze" begin="7e6b.click" /><animate attributeName="stroke-dashoffset" values="36.528;36.528;0" keyTimes="0;0.868;1" dur="2.756s" fill="freeze" begin="0s;7e6b.click" /></path><path d="M46.87,48.26c0.32,0.19,0.69,1.41,0.64,1.79c-0.31,2.31-0.63,3.14-1.16,7.44" stroke-dasharray="9.477" stroke-dashoffset="9.477"><animate attributeName="stroke-dashoffset" values="9.477" fill="freeze" begin="7e6b.click" /><animate attributeName="stroke-dashoffset" values="9.477;9.477;0" keyTimes="0;0.936;1" dur="2.946s" fill="freeze" begin="0s;7e6b.click" /></path><path d="M60.75,12.13c0.22,0.46,0.44,1.47,0.43,2.14c-0.17,6.97-1.87,14.99-6.87,17.92" stroke-dasharray="22.142" stroke-dashoffset="22.142"><animate attributeName="stroke-dashoffset" values="22.142" fill="freeze" begin="7e6b.click" /><animate attributeName="stroke-dashoffset" values="22.142;22.142;0" keyTimes="0;0.93;1" dur="3.167s" fill="freeze" begin="0s;7e6b.click" /></path><path d="M62.15,13.41c1.6,0.18,10.49-1.97,11.56-2.33c1.6-0.54,2.41,1.15,2.24,2.35c-0.32,2.35-0.98,6.33-0.98,8.68c0,3.25,0.52,5.6,7.09,5.6c6.25,0,7.59-0.36,7.59-7.05" stroke-dasharray="47.846" stroke-dashoffset="47.846"><animate attributeName="stroke-dashoffset" values="47.846" fill="freeze" begin="7e6b.click" /><animate attributeName="stroke-dashoffset" values="47.846;47.846;0" keyTimes="0;0.869;1" dur="3.645s" fill="freeze" begin="0s;7e6b.click" /></path><path d="M59.45,36.28c0.96,0.21,1.08,0.54,3.01,0.21c1.92-0.32,14.17-1.75,15.49-2.08c1.32-0.32,2.55,1.36,1.8,2.36c-7.5,10.11-11.7,13.29-23.25,18.62" stroke-dasharray="52.652" stroke-dashoffset="52.652"><animate attributeName="stroke-dashoffset" values="52.652" fill="freeze" begin="7e6b.click" /><animate attributeName="stroke-dashoffset" values="52.652;52.652;0" keyTimes="0;0.874;1" dur="4.172s" fill="freeze" begin="0s;7e6b.click" /></path><path d="M58.85,41.73c2.95,0.37,17.38,10.15,27.66,14.16c1.6,0.62,2.77,1.04,4.26,1.25" stroke-dasharray="35.57" stroke-dashoffset="35.57"><animate attributeName="stroke-dashoffset" values="35.57" fill="freeze" begin="7e6b.click" /><animate attributeName="stroke-dashoffset" values="35.57;35.57;0" keyTimes="0;0.921;1" dur="4.528s" fill="freeze" begin="0s;7e6b.click" /></path><path d="M51.87,56c0.36,0.67,0.56,1.18-0.18,1.9c-3.26,3.12-9.28,8.04-12.9,9.6c-0.74,0.32-0.72,1.55,0,1.67c3.8,0.67,7.97,1.78,11.23,3.01" stroke-dasharray="32.046" stroke-dashoffset="32.046"><animate attributeName="stroke-dashoffset" values="32.046" fill="freeze" begin="7e6b.click" /><animate attributeName="stroke-dashoffset" values="32.046;32.046;0" keyTimes="0;0.934;1" dur="4.848s" fill="freeze" begin="0s;7e6b.click" /></path><path d="M67.75,59.97c0.25,0.51-0.3,1.49-1,1.89C56,68.05,46.25,75.03,32.5,81.72c-1.66,0.81-1,1.26,1,1.01c8.36-1.06,32.75-4.46,43.5-5.47" stroke-dasharray="89.064" stroke-dashoffset="89.064"><animate attributeName="stroke-dashoffset" values="89.064" fill="freeze" begin="7e6b.click" /><animate attributeName="stroke-dashoffset" values="89.064;89.064;0" keyTimes="0;0.879;1" dur="5.518s" fill="freeze" begin="0s;7e6b.click" /></path><path d="M70.75,71.5c4.32,2.06,11.17,8.46,12.25,11.66" stroke-dasharray="17.159" stroke-dashoffset="17.159"><animate attributeName="stroke-dashoffset" values="17.159" fill="freeze" begin="7e6b.click" /><animate attributeName="stroke-dashoffset" values="17.159;17.159;0" keyTimes="0;0.97;1" dur="5.69s" fill="freeze" begin="0s;7e6b.click" /></path><path d="M53.5,82.23c0.09,0.13,1.17,0.68,1.26,1.51c0.4,3.99-0.26,15.9-0.26,17.26" stroke-dasharray="19.296" stroke-dashoffset="19.296"><animate attributeName="stroke-dashoffset" values="19.296" fill="freeze" begin="7e6b.click" /><animate attributeName="stroke-dashoffset" values="19.296;19.296;0" keyTimes="0;0.967;1" dur="5.883s" fill="freeze" begin="0s;7e6b.click" /></path><path d="M41.2,87.87c0.32,0.53,0.27,2.26-0.32,2.64c-3.89,2.47-13.62,7.23-19.13,9.34" stroke-dasharray="24.116" stroke-dashoffset="24.116"><animate attributeName="stroke-dashoffset" values="24.116" fill="freeze" begin="7e6b.click" /><animate attributeName="stroke-dashoffset" values="24.116;24.116;0" keyTimes="0;0.961;1" dur="6.124s" fill="freeze" begin="0s;7e6b.click" /></path><path d="M69.41,87.17c5.43,2.24,14.75,8.22,16.69,10.46" stroke-dasharray="19.778" stroke-dashoffset="19.778"><animate attributeName="stroke-dashoffset" values="19.778" fill="freeze" begin="7e6b.click" /><animate attributeName="stroke-dashoffset" values="19.778;19.778;0" keyTimes="0;0.969;1" dur="6.322s" fill="freeze" begin="0s;7e6b.click" /></path></g></svg>