<svg xmlns="http://www.w3.org/2000/svg" viewBox="0 0 109 109" id="81fc"><g fill="none" stroke="#a6a6a6" stroke-width="6" stroke-linecap="round" stroke-linejoin="round"><g><path d="M47.55,17.46c0.07,0.47,0.29,1.37-0.14,1.87C41.75,26,35.15,31.95,22.25,37.25" /><path d="M19.53,35.73c1.06,1.1,1.5,3.55,1.76,5.8c0.96,8.22,3.99,40.35,4.96,51.47" /><path d="M23.75,60.25c5.25-0.5,19.75-2.5,21-2.5s3,0,4,0" /><path d="M60,31.75c1.25,0.25,2.25,0.75,4,0.75s20.25-3,22.25-3.25s3.66,1.24,3.5,2.75c-1.5,14.5-3.5,42.5-5,54.5c-0.22,1.74,0,2.75-0.25,3.75" /><path d="M60.5,56.75c1.25,0.25,2.25,0.75,4,0.75s19.75-2,21.75-2.25" /><path d="M26.5,88.75c3.25,0,53.25-3.25,57-3.5" /></g></g><g fill="none" stroke="#000" stroke-width="3" stroke-linecap="round" stroke-linejoin="round"><path d="M47.55,17.46c0.07,0.47,0.29,1.37-0.14,1.87C41.75,26,35.15,31.95,22.25,37.25" stroke-dasharray="33.164" stroke-dashoffset="33.164"><animate attributeName="stroke-dashoffset" values="33.164;33.164;0" dur="0.332s" fill="freeze" begin="0s;81fc.click" /></path><path d="M19.53,35.73c1.06,1.1,1.5,3.55,1.76,5.8c0.96,8.22,3.99,40.35,4.96,51.47" stroke-dasharray="57.858" stroke-dashoffset="57.858"><animate attributeName="stroke-dashoffset" values="57.858" fill="freeze" begin="81fc.click" /><animate attributeName="stroke-dashoffset" values="57.858;57.858;0" keyTimes="0;0.364;1" dur="0.911s" fill="freeze" begin="0s;81fc.click" /></path><path d="M23.75,60.25c5.25-0.5,19.75-2.5,21-2.5s3,0,4,0" stroke-dasharray="25.151" stroke-dashoffset="25.151"><animate attributeName="stroke-dashoffset" values="25.151" fill="freeze" begin="81fc.click" /><animate attributeName="stroke-dashoffset" values="25.151;25.151;0" keyTimes="0;0.783;1" dur="1.163s" fill="freeze" begin="0s;81fc.click" /></path><path d="M60,31.75c1.25,0.25,2.25,0.75,4,0.75s20.25-3,22.25-3.25s3.66,1.24,3.5,2.75c-1.5,14.5-3.5,42.5-5,54.5c-0.22,1.74,0,2.75-0.25,3.75" stroke-dasharray="90.137" stroke-dashoffset="90.137"><animate attributeName="stroke-dashoffset" values="90.137" fill="freeze" begin="81fc.click" /><animate attributeName="stroke-dashoffset" values="90.137;90.137;0" keyTimes="0;0.632;1" dur="1.841s" fill="freeze" begin="0s;81fc.click" /></path><path d="M60.5,56.75c1.25,0.25,2.25,0.75,4,0.75s19.75-2,21.75-2.25" stroke-dasharray="25.953" stroke-dashoffset="25.953"><animate attributeName="stroke-dashoffset" values="25.953" fill="freeze" begin="81fc.click" /><animate attributeName="stroke-dashoffset" values="25.953;25.953;0" keyTimes="0;0.876;1" dur="2.101s" fill="freeze" begin="0s;81fc.click" /></path><path d="M26.5,88.75c3.25,0,53.25-3.25,57-3.5" stroke-dasharray="57.109" stroke-dashoffset="57.109"><animate attributeName="stroke-dashoffset" values="57.109" fill="freeze" begin="81fc.click" /><animate attributeName="stroke-dashoffset" values="57.109;57.109;0" keyTimes="0;0.786;1" dur="2.672s" fill="freeze" begin="0s;81fc.click" /></path></g></svg>