<svg xmlns="http://www.w3.org/2000/svg" viewBox="0 0 109 109" id="840a"><g fill="none" stroke="#a6a6a6" stroke-width="6" stroke-linecap="round" stroke-linejoin="round"><g><g><path d="M20,21.77c1.29,0.53,2.8,0.63,4.1,0.53c11.9-0.96,47.4-3.96,61.12-4.03c2.16-0.01,3.45,0.25,4.53,0.51" /><path d="M36.25,10.5c1.75,1.43,2.31,1.87,2.5,2.75C40.5,21.5,41,26,41.5,29" /><path d="M68.97,8.75c0.98,0.88,1.64,2.21,1.31,3.5c-0.98,3.94-1.64,10.5-3.06,15.53" /></g><g><g><path d="M22.79,39.4c1.16,0.4,3.29,0.49,4.45,0.4c13.01-1.04,42.78-4.32,54.78-4.53c1.93-0.03,3.09,0.19,4.06,0.38" /></g><g><g><path d="M33.5,46.06c0,0.58,0.08,1.06-0.13,1.73c-1.93,6.26-7.69,14.05-16.15,20.96" /><path d="M32.14,55.77c3.3,1.65,7.51,6.05,9.11,10.21" /></g><g><path d="M77.76,42.29c0,0.46,0.11,0.86-0.1,1.38c-1.82,4.52-7.01,12.55-13.18,17.1" /><path d="M75.14,52.01c4.7,3,8.3,6.76,11.11,11.32" /></g></g><g><path d="M51.92,25.5c1.35,0.43,2.43,2.41,2.43,3.32c0,3.93,0,66-0.27,71.43" /><path d="M54.17,59.73C47.4,71,30.96,86.83,15.75,93.34" /><path d="M53.75,62.29C60.5,67.75,80,85.75,87.08,89.43c2.05,1.07,3.52,1.89,5.42,2.27" /></g></g></g></g><g fill="none" stroke="#000" stroke-width="3" stroke-linecap="round" stroke-linejoin="round"><path d="M20,21.77c1.29,0.53,2.8,0.63,4.1,0.53c11.9-0.96,47.4-3.96,61.12-4.03c2.16-0.01,3.45,0.25,4.53,0.51" stroke-dasharray="70.005" stroke-dashoffset="70.005"><animate attributeName="stroke-dashoffset" values="70.005;70.005;0" dur="0.526s" fill="freeze" begin="0s;840a.click" /></path><path d="M36.25,10.5c1.75,1.43,2.31,1.87,2.5,2.75C40.5,21.5,41,26,41.5,29" stroke-dasharray="19.78" stroke-dashoffset="19.78"><animate attributeName="stroke-dashoffset" values="19.78" fill="freeze" begin="840a.click" /><animate attributeName="stroke-dashoffset" values="19.78;19.78;0" keyTimes="0;0.727;1" dur="0.724s" fill="freeze" begin="0s;840a.click" /></path><path d="M68.97,8.75c0.98,0.88,1.64,2.21,1.31,3.5c-0.98,3.94-1.64,10.5-3.06,15.53" stroke-dasharray="19.762" stroke-dashoffset="19.762"><animate attributeName="stroke-dashoffset" values="19.762" fill="freeze" begin="840a.click" /><animate attributeName="stroke-dashoffset" values="19.762;19.762;0" keyTimes="0;0.785;1" dur="0.922s" fill="freeze" begin="0s;840a.click" /></path><path d="M22.79,39.4c1.16,0.4,3.29,0.49,4.45,0.4c13.01-1.04,42.78-4.32,54.78-4.53c1.93-0.03,3.09,0.19,4.06,0.38" stroke-dasharray="63.553" stroke-dashoffset="63.553"><animate attributeName="stroke-dashoffset" values="63.553" fill="freeze" begin="840a.click" /><animate attributeName="stroke-dashoffset" values="63.553;63.553;0" keyTimes="0;0.659;1" dur="1.4s" fill="freeze" begin="0s;840a.click" /></path><path d="M33.5,46.06c0,0.58,0.08,1.06-0.13,1.73c-1.93,6.26-7.69,14.05-16.15,20.96" stroke-dasharray="28.543" stroke-dashoffset="28.543"><animate attributeName="stroke-dashoffset" values="28.543" fill="freeze" begin="840a.click" /><animate attributeName="stroke-dashoffset" values="28.543;28.543;0" keyTimes="0;0.831;1" dur="1.685s" fill="freeze" begin="0s;840a.click" /></path><path d="M32.14,55.77c3.3,1.65,7.51,6.05,9.11,10.21" stroke-dasharray="13.935" stroke-dashoffset="13.935"><animate attributeName="stroke-dashoffset" values="13.935" fill="freeze" begin="840a.click" /><animate attributeName="stroke-dashoffset" values="13.935;13.935;0" keyTimes="0;0.858;1" dur="1.964s" fill="freeze" begin="0s;840a.click" /></path><path d="M77.76,42.29c0,0.46,0.11,0.86-0.1,1.38c-1.82,4.52-7.01,12.55-13.18,17.1" stroke-dasharray="23.208" stroke-dashoffset="23.208"><animate attributeName="stroke-dashoffset" values="23.208" fill="freeze" begin="840a.click" /><animate attributeName="stroke-dashoffset" values="23.208;23.208;0" keyTimes="0;0.894;1" dur="2.196s" fill="freeze" begin="0s;840a.click" /></path><path d="M75.14,52.01c4.7,3,8.3,6.76,11.11,11.32" stroke-dasharray="16.002" stroke-dashoffset="16.002"><animate attributeName="stroke-dashoffset" values="16.002" fill="freeze" begin="840a.click" /><animate attributeName="stroke-dashoffset" values="16.002;16.002;0" keyTimes="0;0.932;1" dur="2.356s" fill="freeze" begin="0s;840a.click" /></path><path d="M51.92,25.5c1.35,0.43,2.43,2.41,2.43,3.32c0,3.93,0,66-0.27,71.43" stroke-dasharray="75.738" stroke-dashoffset="75.738"><animate attributeName="stroke-dashoffset" values="75.738" fill="freeze" begin="840a.click" /><animate attributeName="stroke-dashoffset" values="75.738;75.738;0" keyTimes="0;0.805;1" dur="2.925s" fill="freeze" begin="0s;840a.click" /></path><path d="M54.17,59.73C47.4,71,30.96,86.83,15.75,93.34" stroke-dasharray="51.703" stroke-dashoffset="51.703"><animate attributeName="stroke-dashoffset" values="51.703" fill="freeze" begin="840a.click" /><animate attributeName="stroke-dashoffset" values="51.703;51.703;0" keyTimes="0;0.85;1" dur="3.442s" fill="freeze" begin="0s;840a.click" /></path><path d="M53.75,62.29C60.5,67.75,80,85.75,87.08,89.43c2.05,1.07,3.52,1.89,5.42,2.27" stroke-dasharray="48.928" stroke-dashoffset="48.928"><animate attributeName="stroke-dashoffset" values="48.928" fill="freeze" begin="840a.click" /><animate attributeName="stroke-dashoffset" values="48.928;48.928;0" keyTimes="0;0.876;1" dur="3.931s" fill="freeze" begin="0s;840a.click" /></path></g></svg>