<svg xmlns="http://www.w3.org/2000/svg" viewBox="0 0 109 109" id="87ec"><g fill="none" stroke="#a6a6a6" stroke-width="6" stroke-linecap="round" stroke-linejoin="round"><g><g><g><g><path d="M13.51,40.09c0.42,0.49,0.94,1.36,1.03,2c0.8,5.62,1.72,12.91,2.87,21.3" /><path d="M15.31,42.11c6.38-0.94,19.88-3.72,24.49-4.08c1.8-0.14,2.63,1.34,2.41,2.75c-0.77,4.83-1.82,9.56-3.06,17.6" /><path d="M17.65,61.49c5.13-0.95,16.52-2.41,23.7-3.29" /></g><g><path d="M25.42,18.25c1.08,1,2.26,2.75,2.26,4.47c0,4.78-0.2,42.78-0.2,56.16" /></g></g><path d="M12.57,83.77c0.6,1.16,2.46,1.11,3.06,0.82c0.6-0.29,21.04-10.15,24.76-12.47" /><path d="M36.25,64.25c2.75,3.11,7.12,12.8,7.81,17.64" /></g><g><g><g><path d="M48,14.06c0.31,0.29,0.66,0.51,0.75,0.89c0.87,3.3,2.47,8.92,3.34,13.77" /><path d="M49.91,15.62c5.65-0.7,10.52-1.71,15.73-2.42c1.31-0.17,2.1,0.81,1.91,1.62c-0.78,3.34-1.07,4.86-2.46,10.41" /><path d="M52.74,27.43c4.22-0.42,8.27-1.13,14.06-1.79" /></g><g><path d="M73.79,12.7c0.27,0.31,1.07,1.45,1.15,1.86c0.77,3.57,1.13,7.6,1.91,12.85" /><path d="M75.19,13.99c6.38-0.83,13.55-1.86,18.16-2.62c1.16-0.19,1.85,0.88,1.69,1.75c-0.69,3.61-2.49,6.96-3.4,10.86" /><path d="M76.64,25.53c4.9-0.29,9.81-0.96,17.03-1.08" /></g></g><g><g><path d="M51.74,36.26c0.27,0.52,0.76,1.43,0.91,2.08c1.21,5.34,2.75,15.6,3.52,25.51" /><path d="M53.49,38.28c10.1-1.79,26.79-3.16,33.75-4.08c2.56-0.34,4.1,0.72,4.02,2.97c-0.18,5.34-2.91,21.87-3.37,24.1" /><path d="M55.02,49.68c3.04-0.43,30.57-3.46,34.8-3.17" /><path d="M56.54,62.23c10.42-1.43,21.8-2.04,31.42-3.08" /></g><g><path d="M48.94,75.38c1.2,0.51,3.41,0.6,4.62,0.51c6.69-0.46,26.02-3.27,41.04-3.97c2.01-0.09,3.21,0.25,4.22,0.5" /></g><g><path d="M70.39,37.99c0.53,0.36,0.86,1.36,0.87,2.58c0.03,6.19,0.16,56.92,0.17,58.94" /></g></g></g></g></g><g fill="none" stroke="#000" stroke-width="3" stroke-linecap="round" stroke-linejoin="round"><path d="M13.51,40.09c0.42,0.49,0.94,1.36,1.03,2c0.8,5.62,1.72,12.91,2.87,21.3" stroke-dasharray="23.767" stroke-dashoffset="23.767"><animate attributeName="stroke-dashoffset" values="23.767;23.767;0" dur="0.238s" fill="freeze" begin="0s;87ec.click" /></path><path d="M15.31,42.11c6.38-0.94,19.88-3.72,24.49-4.08c1.8-0.14,2.63,1.34,2.41,2.75c-0.77,4.83-1.82,9.56-3.06,17.6" stroke-dasharray="46.971" stroke-dashoffset="46.971"><animate attributeName="stroke-dashoffset" values="46.971" fill="freeze" begin="87ec.click" /><animate attributeName="stroke-dashoffset" values="46.971;46.971;0" keyTimes="0;0.336;1" dur="0.708s" fill="freeze" begin="0s;87ec.click" /></path><path d="M17.65,61.49c5.13-0.95,16.52-2.41,23.7-3.29" stroke-dasharray="23.931" stroke-dashoffset="23.931"><animate attributeName="stroke-dashoffset" values="23.931" fill="freeze" begin="87ec.click" /><animate attributeName="stroke-dashoffset" values="23.931;23.931;0" keyTimes="0;0.748;1" dur="0.947s" fill="freeze" begin="0s;87ec.click" /></path><path d="M25.42,18.25c1.08,1,2.26,2.75,2.26,4.47c0,4.78-0.2,42.78-0.2,56.16" stroke-dasharray="61.3" stroke-dashoffset="61.3"><animate attributeName="stroke-dashoffset" values="61.3" fill="freeze" begin="87ec.click" /><animate attributeName="stroke-dashoffset" values="61.3;61.3;0" keyTimes="0;0.673;1" dur="1.408s" fill="freeze" begin="0s;87ec.click" /></path><path d="M12.57,83.77c0.6,1.16,2.46,1.11,3.06,0.82c0.6-0.29,21.04-10.15,24.76-12.47" stroke-dasharray="31.155" stroke-dashoffset="31.155"><animate attributeName="stroke-dashoffset" values="31.155" fill="freeze" begin="87ec.click" /><animate attributeName="stroke-dashoffset" values="31.155;31.155;0" keyTimes="0;0.819;1" dur="1.72s" fill="freeze" begin="0s;87ec.click" /></path><path d="M36.25,64.25c2.75,3.11,7.12,12.8,7.81,17.64" stroke-dasharray="19.444" stroke-dashoffset="19.444"><animate attributeName="stroke-dashoffset" values="19.444" fill="freeze" begin="87ec.click" /><animate attributeName="stroke-dashoffset" values="19.444;19.444;0" keyTimes="0;0.899;1" dur="1.914s" fill="freeze" begin="0s;87ec.click" /></path><path d="M48,14.06c0.31,0.29,0.66,0.51,0.75,0.89c0.87,3.3,2.47,8.92,3.34,13.77" stroke-dasharray="15.358" stroke-dashoffset="15.358"><animate attributeName="stroke-dashoffset" values="15.358" fill="freeze" begin="87ec.click" /><animate attributeName="stroke-dashoffset" values="15.358;15.358;0" keyTimes="0;0.926;1" dur="2.068s" fill="freeze" begin="0s;87ec.click" /></path><path d="M49.91,15.62c5.65-0.7,10.52-1.71,15.73-2.42c1.31-0.17,2.1,0.81,1.91,1.62c-0.78,3.34-1.07,4.86-2.46,10.41" stroke-dasharray="29.548" stroke-dashoffset="29.548"><animate attributeName="stroke-dashoffset" values="29.548" fill="freeze" begin="87ec.click" /><animate attributeName="stroke-dashoffset" values="29.548;29.548;0" keyTimes="0;0.875;1" dur="2.363s" fill="freeze" begin="0s;87ec.click" /></path><path d="M52.74,27.43c4.22-0.42,8.27-1.13,14.06-1.79" stroke-dasharray="14.175" stroke-dashoffset="14.175"><animate attributeName="stroke-dashoffset" values="14.175" fill="freeze" begin="87ec.click" /><animate attributeName="stroke-dashoffset" values="14.175;14.175;0" keyTimes="0;0.893;1" dur="2.646s" fill="freeze" begin="0s;87ec.click" /></path><path d="M73.79,12.7c0.27,0.31,1.07,1.45,1.15,1.86c0.77,3.57,1.13,7.6,1.91,12.85" stroke-dasharray="15.193" stroke-dashoffset="15.193"><animate attributeName="stroke-dashoffset" values="15.193" fill="freeze" begin="87ec.click" /><animate attributeName="stroke-dashoffset" values="15.193;15.193;0" keyTimes="0;0.946;1" dur="2.798s" fill="freeze" begin="0s;87ec.click" /></path><path d="M75.19,13.99c6.38-0.83,13.55-1.86,18.16-2.62c1.16-0.19,1.85,0.88,1.69,1.75c-0.69,3.61-2.49,6.96-3.4,10.86" stroke-dasharray="32.594" stroke-dashoffset="32.594"><animate attributeName="stroke-dashoffset" values="32.594" fill="freeze" begin="87ec.click" /><animate attributeName="stroke-dashoffset" values="32.594;32.594;0" keyTimes="0;0.896;1" dur="3.124s" fill="freeze" begin="0s;87ec.click" /></path><path d="M76.64,25.53c4.9-0.29,9.81-0.96,17.03-1.08" stroke-dasharray="17.069" stroke-dashoffset="17.069"><animate attributeName="stroke-dashoffset" values="17.069" fill="freeze" begin="87ec.click" /><animate attributeName="stroke-dashoffset" values="17.069;17.069;0" keyTimes="0;0.948;1" dur="3.295s" fill="freeze" begin="0s;87ec.click" /></path><path d="M51.74,36.26c0.27,0.52,0.76,1.43,0.91,2.08c1.21,5.34,2.75,15.6,3.52,25.51" stroke-dasharray="28.046" stroke-dashoffset="28.046"><animate attributeName="stroke-dashoffset" values="28.046" fill="freeze" begin="87ec.click" /><animate attributeName="stroke-dashoffset" values="28.046;28.046;0" keyTimes="0;0.922;1" dur="3.575s" fill="freeze" begin="0s;87ec.click" /></path><path d="M53.49,38.28c10.1-1.79,26.79-3.16,33.75-4.08c2.56-0.34,4.1,0.72,4.02,2.97c-0.18,5.34-2.91,21.87-3.37,24.1" stroke-dasharray="64.24" stroke-dashoffset="64.24"><animate attributeName="stroke-dashoffset" values="64.24" fill="freeze" begin="87ec.click" /><animate attributeName="stroke-dashoffset" values="64.24;64.24;0" keyTimes="0;0.881;1" dur="4.058s" fill="freeze" begin="0s;87ec.click" /></path><path d="M55.02,49.68c3.04-0.43,30.57-3.46,34.8-3.17" stroke-dasharray="34.959" stroke-dashoffset="34.959"><animate attributeName="stroke-dashoffset" values="34.959" fill="freeze" begin="87ec.click" /><animate attributeName="stroke-dashoffset" values="34.959;34.959;0" keyTimes="0;0.921;1" dur="4.408s" fill="freeze" begin="0s;87ec.click" /></path><path d="M56.54,62.23c10.42-1.43,21.8-2.04,31.42-3.08" stroke-dasharray="31.575" stroke-dashoffset="31.575"><animate attributeName="stroke-dashoffset" values="31.575" fill="freeze" begin="87ec.click" /><animate attributeName="stroke-dashoffset" values="31.575;31.575;0" keyTimes="0;0.933;1" dur="4.724s" fill="freeze" begin="0s;87ec.click" /></path><path d="M48.94,75.38c1.2,0.51,3.41,0.6,4.62,0.51c6.69-0.46,26.02-3.27,41.04-3.97c2.01-0.09,3.21,0.25,4.22,0.5" stroke-dasharray="50.189" stroke-dashoffset="50.189"><animate attributeName="stroke-dashoffset" values="50.189" fill="freeze" begin="87ec.click" /><animate attributeName="stroke-dashoffset" values="50.189;50.189;0" keyTimes="0;0.904;1" dur="5.226s" fill="freeze" begin="0s;87ec.click" /></path><path d="M70.39,37.99c0.53,0.36,0.86,1.36,0.87,2.58c0.03,6.19,0.16,56.92,0.17,58.94" stroke-dasharray="61.752" stroke-dashoffset="61.752"><animate attributeName="stroke-dashoffset" values="61.752" fill="freeze" begin="87ec.click" /><animate attributeName="stroke-dashoffset" values="61.752;61.752;0" keyTimes="0;0.918;1" dur="5.69s" fill="freeze" begin="0s;87ec.click" /></path></g></svg>