<svg xmlns="http://www.w3.org/2000/svg" viewBox="0 0 109 109" id="91ac"><g fill="none" stroke="#a6a6a6" stroke-width="6" stroke-linecap="round" stroke-linejoin="round"><g><g><g><path d="M35.32,10.76c1.16,0.75,1.91,2.04,1.91,2.93c0,8.5-0.04,38.83-0.04,41.72" /><path d="M17.77,14.57c1.54,0.4,2.13,0.86,2.26,2.18c0.2,1.97-0.83,7.33-1.31,9.4c-0.15,0.66,0.28,1.69,2.57,1.54c4.09-0.27,11.99-1.18,15.43-1.43" /><path d="M14.55,38.93c1.24,0.15,1.5,0.58,2.95,0.48c6.21-0.43,14.63-2.47,18.97-2.71" /><path d="M23.93,40.69c0.02,0.36,0.38,0.94,0.33,1.46c-0.51,4.54-2.51,8.74-7.04,14.01" /></g><g><g><path d="M66.99,5.45c0.26,1.25,0.14,2.15-0.54,3.01c-3.4,4.26-9.91,10.88-19.83,14.68" /><path d="M65.06,12.78c1.26,0.28,2.23,0.47,4.06,0.35c5.64-0.38,9.05-1.4,11.92-1.87c2.3-0.38,2.69,1.47,1.59,2.8c-6.05,7.31-16.13,14.64-37.51,21" /><path d="M60.93,18.08c0.76,0.37,3.81,2.57,5.33,4.78" /><path d="M53.58,23.18c0.92,0.68,3.69,3.55,4.46,5.07" /></g><g><path d="M44.26,40.21c1.18,0.41,3.34,0.46,4.54,0.41c13.13-0.5,27.96-3.59,42.43-4.22c1.97-0.09,3.16,0.2,4.15,0.4" /><path d="M80.2,25.65c0.06,0.18,0.92,0.91,0.92,2.03c0,7.49-0.19,22.04-0.19,23.86c0,4.42-2.16,3.86-6.12-0.38" /><path d="M55.13,43.39c2.86,1.44,7.38,5.91,8.09,8.14" /></g></g></g><g><g><path d="M27.78,60.82c0.79,0.19,3.68,0.21,4.47,0.16c5.31-0.35,34.39-2.78,41.91-2.88c1.32-0.02,3.07,0.07,3.73,0.16" /><path d="M25.44,70.72c0.7,0.39,0.97,1.86,0.98,2.39c0.01,0.54,1.99,27.05,2.23,27.58" /><path d="M26.56,72.53c3.94-0.11,49.12-4.62,52.71-4.74c2.99-0.1,3.98,1.16,3.63,3.6c-0.12,0.84-2.43,28.28-2.43,28.68" /><path d="M44.83,63.38c1.19,0.59,0.8,1.42,0.82,2.25c0.15,5.42-2.85,14.52-11.83,18.6" /><path d="M58.78,60.6c0.85,0.64,1.58,1.9,1.58,2.91c0,5.93-1.56,13.46,0.91,15.04c1.87,1.2,8.48,1.39,13.46,0.76c1.31-0.17,2.75-0.88,2.97-1.5" /></g><g><path d="M27.91,90.5c10.26-0.31,41-2.75,51.23-2.98" /></g><g><path d="M28.73,99.17c10.84-0.41,37.96-1.66,51.46-2.05" /></g></g></g></g><g fill="none" stroke="#000" stroke-width="3" stroke-linecap="round" stroke-linejoin="round"><path d="M35.32,10.76c1.16,0.75,1.91,2.04,1.91,2.93c0,8.5-0.04,38.83-0.04,41.72" stroke-dasharray="45.342" stroke-dashoffset="45.342"><animate attributeName="stroke-dashoffset" values="45.342;45.342;0" dur="0.453s" fill="freeze" begin="0s;91ac.click" /></path><path d="M17.77,14.57c1.54,0.4,2.13,0.86,2.26,2.18c0.2,1.97-0.83,7.33-1.31,9.4c-0.15,0.66,0.28,1.69,2.57,1.54c4.09-0.27,11.99-1.18,15.43-1.43" stroke-dasharray="31.938" stroke-dashoffset="31.938"><animate attributeName="stroke-dashoffset" values="31.938" fill="freeze" begin="91ac.click" /><animate attributeName="stroke-dashoffset" values="31.938;31.938;0" keyTimes="0;0.587;1" dur="0.772s" fill="freeze" begin="0s;91ac.click" /></path><path d="M14.55,38.93c1.24,0.15,1.5,0.58,2.95,0.48c6.21-0.43,14.63-2.47,18.97-2.71" stroke-dasharray="22.18" stroke-dashoffset="22.18"><animate attributeName="stroke-dashoffset" values="22.18" fill="freeze" begin="91ac.click" /><animate attributeName="stroke-dashoffset" values="22.18;22.18;0" keyTimes="0;0.777;1" dur="0.994s" fill="freeze" begin="0s;91ac.click" /></path><path d="M23.93,40.69c0.02,0.36,0.38,0.94,0.33,1.46c-0.51,4.54-2.51,8.74-7.04,14.01" stroke-dasharray="17.439" stroke-dashoffset="17.439"><animate attributeName="stroke-dashoffset" values="17.439" fill="freeze" begin="91ac.click" /><animate attributeName="stroke-dashoffset" values="17.439;17.439;0" keyTimes="0;0.851;1" dur="1.168s" fill="freeze" begin="0s;91ac.click" /></path><path d="M66.99,5.45c0.26,1.25,0.14,2.15-0.54,3.01c-3.4,4.26-9.91,10.88-19.83,14.68" stroke-dasharray="28.137" stroke-dashoffset="28.137"><animate attributeName="stroke-dashoffset" values="28.137" fill="freeze" begin="91ac.click" /><animate attributeName="stroke-dashoffset" values="28.137;28.137;0" keyTimes="0;0.806;1" dur="1.449s" fill="freeze" begin="0s;91ac.click" /></path><path d="M65.06,12.78c1.26,0.28,2.23,0.47,4.06,0.35c5.64-0.38,9.05-1.4,11.92-1.87c2.3-0.38,2.69,1.47,1.59,2.8c-6.05,7.31-16.13,14.64-37.51,21" stroke-dasharray="64.369" stroke-dashoffset="64.369"><animate attributeName="stroke-dashoffset" values="64.369" fill="freeze" begin="91ac.click" /><animate attributeName="stroke-dashoffset" values="64.369;64.369;0" keyTimes="0;0.75;1" dur="1.933s" fill="freeze" begin="0s;91ac.click" /></path><path d="M60.93,18.08c0.76,0.37,3.81,2.57,5.33,4.78" stroke-dasharray="7.207" stroke-dashoffset="7.207"><animate attributeName="stroke-dashoffset" values="7.207" fill="freeze" begin="91ac.click" /><animate attributeName="stroke-dashoffset" values="7.207;7.207;0" keyTimes="0;0.931;1" dur="2.077s" fill="freeze" begin="0s;91ac.click" /></path><path d="M53.58,23.18c0.92,0.68,3.69,3.55,4.46,5.07" stroke-dasharray="6.784" stroke-dashoffset="6.784"><animate attributeName="stroke-dashoffset" values="6.784" fill="freeze" begin="91ac.click" /><animate attributeName="stroke-dashoffset" values="6.784;6.784;0" keyTimes="0;0.939;1" dur="2.213s" fill="freeze" begin="0s;91ac.click" /></path><path d="M44.26,40.21c1.18,0.41,3.34,0.46,4.54,0.41c13.13-0.5,27.96-3.59,42.43-4.22c1.97-0.09,3.16,0.2,4.15,0.4" stroke-dasharray="51.416" stroke-dashoffset="51.416"><animate attributeName="stroke-dashoffset" values="51.416" fill="freeze" begin="91ac.click" /><animate attributeName="stroke-dashoffset" values="51.416;51.416;0" keyTimes="0;0.812;1" dur="2.727s" fill="freeze" begin="0s;91ac.click" /></path><path d="M80.2,25.65c0.06,0.18,0.92,0.91,0.92,2.03c0,7.49-0.19,22.04-0.19,23.86c0,4.42-2.16,3.86-6.12-0.38" stroke-dasharray="35.821" stroke-dashoffset="35.821"><animate attributeName="stroke-dashoffset" values="35.821" fill="freeze" begin="91ac.click" /><animate attributeName="stroke-dashoffset" values="35.821;35.821;0" keyTimes="0;0.884;1" dur="3.085s" fill="freeze" begin="0s;91ac.click" /></path><path d="M55.13,43.39c2.86,1.44,7.38,5.91,8.09,8.14" stroke-dasharray="11.644" stroke-dashoffset="11.644"><animate attributeName="stroke-dashoffset" values="11.644" fill="freeze" begin="91ac.click" /><animate attributeName="stroke-dashoffset" values="11.644;11.644;0" keyTimes="0;0.93;1" dur="3.318s" fill="freeze" begin="0s;91ac.click" /></path><path d="M27.78,60.82c0.79,0.19,3.68,0.21,4.47,0.16c5.31-0.35,34.39-2.78,41.91-2.88c1.32-0.02,3.07,0.07,3.73,0.16" stroke-dasharray="50.228" stroke-dashoffset="50.228"><animate attributeName="stroke-dashoffset" values="50.228" fill="freeze" begin="91ac.click" /><animate attributeName="stroke-dashoffset" values="50.228;50.228;0" keyTimes="0;0.869;1" dur="3.82s" fill="freeze" begin="0s;91ac.click" /></path><path d="M25.44,70.72c0.7,0.39,0.97,1.86,0.98,2.39c0.01,0.54,1.99,27.05,2.23,27.58" stroke-dasharray="30.342" stroke-dashoffset="30.342"><animate attributeName="stroke-dashoffset" values="30.342" fill="freeze" begin="91ac.click" /><animate attributeName="stroke-dashoffset" values="30.342;30.342;0" keyTimes="0;0.927;1" dur="4.123s" fill="freeze" begin="0s;91ac.click" /></path><path d="M26.56,72.53c3.94-0.11,49.12-4.62,52.71-4.74c2.99-0.1,3.98,1.16,3.63,3.6c-0.12,0.84-2.43,28.28-2.43,28.68" stroke-dasharray="87.893" stroke-dashoffset="87.893"><animate attributeName="stroke-dashoffset" values="87.893" fill="freeze" begin="91ac.click" /><animate attributeName="stroke-dashoffset" values="87.893;87.893;0" keyTimes="0;0.862;1" dur="4.784s" fill="freeze" begin="0s;91ac.click" /></path><path d="M44.83,63.38c1.19,0.59,0.8,1.42,0.82,2.25c0.15,5.42-2.85,14.52-11.83,18.6" stroke-dasharray="25.905" stroke-dashoffset="25.905"><animate attributeName="stroke-dashoffset" values="25.905" fill="freeze" begin="91ac.click" /><animate attributeName="stroke-dashoffset" values="25.905;25.905;0" keyTimes="0;0.949;1" dur="5.043s" fill="freeze" begin="0s;91ac.click" /></path><path d="M58.78,60.6c0.85,0.64,1.58,1.9,1.58,2.91c0,5.93-1.56,13.46,0.91,15.04c1.87,1.2,8.48,1.39,13.46,0.76c1.31-0.17,2.75-0.88,2.97-1.5" stroke-dasharray="35.902" stroke-dashoffset="35.902"><animate attributeName="stroke-dashoffset" values="35.902" fill="freeze" begin="91ac.click" /><animate attributeName="stroke-dashoffset" values="35.902;35.902;0" keyTimes="0;0.934;1" dur="5.402s" fill="freeze" begin="0s;91ac.click" /></path><path d="M27.91,90.5c10.26-0.31,41-2.75,51.23-2.98" stroke-dasharray="51.32" stroke-dashoffset="51.32"><animate attributeName="stroke-dashoffset" values="51.32" fill="freeze" begin="91ac.click" /><animate attributeName="stroke-dashoffset" values="51.32;51.32;0" keyTimes="0;0.913;1" dur="5.915s" fill="freeze" begin="0s;91ac.click" /></path><path d="M28.73,99.17c10.84-0.41,37.96-1.66,51.46-2.05" stroke-dasharray="51.502" stroke-dashoffset="51.502"><animate attributeName="stroke-dashoffset" values="51.502" fill="freeze" begin="91ac.click" /><animate attributeName="stroke-dashoffset" values="51.502;51.502;0" keyTimes="0;0.92;1" dur="6.43s" fill="freeze" begin="0s;91ac.click" /></path></g></svg>