<svg xmlns="http://www.w3.org/2000/svg" viewBox="0 0 109 109" id="985a"><g fill="none" stroke="#a6a6a6" stroke-width="6" stroke-linecap="round" stroke-linejoin="round"><g><g><g><path d="M46.12,12.75c-0.3,0.74-0.59,1.12-1.21,1.44c-4.01,2.09-16.15,7.85-29.12,9.99" /><path d="M13.81,12.5c0.76,0.71,0.81,1.19,1.06,2.15c0.25,0.95-0.18,5.35-0.18,8.34c0,7.68,11.87,6.45,20.52,6.45c12.55,0,18.44-1.26,18.44-9.33" /></g><g><g><path d="M23.44,37.22c0.32,0.74,0.79,2.1,0.79,3.1s-0.1,30.97,0,31.96" /><path d="M24.76,39.28c1.81-0.12,16.99-2.37,18.64-2.34c0.76,0.02,1.5,0.49,1.5,2.09c0,1.19,0.03,31.75-0.08,32.49" /><path d="M24.3,49.01c3.45-0.16,6.91-0.69,10.34-1.09c1.06-0.12,2.11-0.24,3.12-0.36" /><path d="M24.17,59.01c3.42-0.3,7.33-0.75,10.75-1.14c0.98-0.11,1.96-0.22,2.91-0.31" /><path d="M24.33,69.65c3.59,0,15.61-2.07,20.26-2.07" /></g><g><path d="M11.31,45.23c0.49,1.01,1.14,1.77,1.14,3.53c0,1.77-1.53,26.77-1.95,30.09c-0.29,2.26,1.88,2.56,3.66,2.25c11.58-1.99,28.1-3.01,35.96-3.03c1.46,0,3.25,0.25,4.38,0.5" /><g><path d="M24.28,85.02c0.04,0.32,0.09,0.82-0.08,1.27c-1,2.68-6.76,8.57-14.64,12.17" /><path d="M39.49,84.21c3.83,2.02,9.9,8.32,10.86,11.47" /></g></g></g></g><g><path d="M57.45,18.35c1,0.5,2.84,0.57,3.85,0.5c8.3-0.58,24.63-3.08,31.09-3.32c1.67-0.06,2.68,0.24,3.51,0.49" /><path d="M75.23,20.43c0.01,0.31,0.03,0.8-0.02,1.24c-0.31,2.62-3.42,8.36-5.88,11.87" /><g><g><path d="M60.66,33.8c0.45,1.08,1.11,1.88,1.11,3.32c0,1.44-0.65,41.84-0.5,43.28" /><path d="M63.03,35.23c2.56-0.18,23.24-2.86,25.58-3.08c1.94-0.18,3.48,1.99,3.31,3.32c-0.21,1.69-0.9,43.75-0.9,44.83" /><path d="M61.99,49.32c4.62,0,9.29-0.62,13.89-1.01c1.54-0.13,3.08-0.27,4.59-0.4" /><path d="M61.69,63.44c5.18-0.27,10.36-0.64,15.53-1.02c1.34-0.1,2.66-0.19,3.94-0.29" /><path d="M61.86,77.79c6.39-0.54,21.01-1.5,28.46-2.04" /></g><g><path d="M68.16,82.48c0.39,1.31,0.28,2.67-0.5,3.63C65.3,88.99,59,94.5,52.71,98.5" /><path d="M84.32,84.62c4.78,3.51,10.43,9.89,11.73,12.96" /></g></g></g></g></g><g fill="none" stroke="#000" stroke-width="3" stroke-linecap="round" stroke-linejoin="round"><path d="M46.12,12.75c-0.3,0.74-0.59,1.12-1.21,1.44c-4.01,2.09-16.15,7.85-29.12,9.99" stroke-dasharray="32.833" stroke-dashoffset="32.833"><animate attributeName="stroke-dashoffset" values="32.833;32.833;0" dur="0.328s" fill="freeze" begin="0s;985a.click" /></path><path d="M13.81,12.5c0.76,0.71,0.81,1.19,1.06,2.15c0.25,0.95-0.18,5.35-0.18,8.34c0,7.68,11.87,6.45,20.52,6.45c12.55,0,18.44-1.26,18.44-9.33" stroke-dasharray="58.26" stroke-dashoffset="58.26"><animate attributeName="stroke-dashoffset" values="58.26" fill="freeze" begin="985a.click" /><animate attributeName="stroke-dashoffset" values="58.26;58.26;0" keyTimes="0;0.36;1" dur="0.911s" fill="freeze" begin="0s;985a.click" /></path><path d="M23.44,37.22c0.32,0.74,0.79,2.1,0.79,3.1s-0.1,30.97,0,31.96" stroke-dasharray="35.179" stroke-dashoffset="35.179"><animate attributeName="stroke-dashoffset" values="35.179" fill="freeze" begin="985a.click" /><animate attributeName="stroke-dashoffset" values="35.179;35.179;0" keyTimes="0;0.721;1" dur="1.263s" fill="freeze" begin="0s;985a.click" /></path><path d="M24.76,39.28c1.81-0.12,16.99-2.37,18.64-2.34c0.76,0.02,1.5,0.49,1.5,2.09c0,1.19,0.03,31.75-0.08,32.49" stroke-dasharray="54.183" stroke-dashoffset="54.183"><animate attributeName="stroke-dashoffset" values="54.183" fill="freeze" begin="985a.click" /><animate attributeName="stroke-dashoffset" values="54.183;54.183;0" keyTimes="0;0.7;1" dur="1.805s" fill="freeze" begin="0s;985a.click" /></path><path d="M24.3,49.01c3.45-0.16,6.91-0.69,10.34-1.09c1.06-0.12,2.11-0.24,3.12-0.36" stroke-dasharray="13.542" stroke-dashoffset="13.542"><animate attributeName="stroke-dashoffset" values="13.542" fill="freeze" begin="985a.click" /><animate attributeName="stroke-dashoffset" values="13.542;13.542;0" keyTimes="0;0.869;1" dur="2.076s" fill="freeze" begin="0s;985a.click" /></path><path d="M24.17,59.01c3.42-0.3,7.33-0.75,10.75-1.14c0.98-0.11,1.96-0.22,2.91-0.31" stroke-dasharray="13.738" stroke-dashoffset="13.738"><animate attributeName="stroke-dashoffset" values="13.738" fill="freeze" begin="985a.click" /><animate attributeName="stroke-dashoffset" values="13.738;13.738;0" keyTimes="0;0.883;1" dur="2.351s" fill="freeze" begin="0s;985a.click" /></path><path d="M24.33,69.65c3.59,0,15.61-2.07,20.26-2.07" stroke-dasharray="20.376" stroke-dashoffset="20.376"><animate attributeName="stroke-dashoffset" values="20.376" fill="freeze" begin="985a.click" /><animate attributeName="stroke-dashoffset" values="20.376;20.376;0" keyTimes="0;0.92;1" dur="2.555s" fill="freeze" begin="0s;985a.click" /></path><path d="M11.31,45.23c0.49,1.01,1.14,1.77,1.14,3.53c0,1.77-1.53,26.77-1.95,30.09c-0.29,2.26,1.88,2.56,3.66,2.25c11.58-1.99,28.1-3.01,35.96-3.03c1.46,0,3.25,0.25,4.38,0.5" stroke-dasharray="79.636" stroke-dashoffset="79.636"><animate attributeName="stroke-dashoffset" values="79.636" fill="freeze" begin="985a.click" /><animate attributeName="stroke-dashoffset" values="79.636;79.636;0" keyTimes="0;0.81;1" dur="3.154s" fill="freeze" begin="0s;985a.click" /></path><path d="M24.28,85.02c0.04,0.32,0.09,0.82-0.08,1.27c-1,2.68-6.76,8.57-14.64,12.17" stroke-dasharray="20.633" stroke-dashoffset="20.633"><animate attributeName="stroke-dashoffset" values="20.633" fill="freeze" begin="985a.click" /><animate attributeName="stroke-dashoffset" values="20.633;20.633;0" keyTimes="0;0.939;1" dur="3.36s" fill="freeze" begin="0s;985a.click" /></path><path d="M39.49,84.21c3.83,2.02,9.9,8.32,10.86,11.47" stroke-dasharray="16.025" stroke-dashoffset="16.025"><animate attributeName="stroke-dashoffset" values="16.025" fill="freeze" begin="985a.click" /><animate attributeName="stroke-dashoffset" values="16.025;16.025;0" keyTimes="0;0.955;1" dur="3.52s" fill="freeze" begin="0s;985a.click" /></path><path d="M57.45,18.35c1,0.5,2.84,0.57,3.85,0.5c8.3-0.58,24.63-3.08,31.09-3.32c1.67-0.06,2.68,0.24,3.51,0.49" stroke-dasharray="38.754" stroke-dashoffset="38.754"><animate attributeName="stroke-dashoffset" values="38.754" fill="freeze" begin="985a.click" /><animate attributeName="stroke-dashoffset" values="38.754;38.754;0" keyTimes="0;0.901;1" dur="3.908s" fill="freeze" begin="0s;985a.click" /></path><path d="M75.23,20.43c0.01,0.31,0.03,0.8-0.02,1.24c-0.31,2.62-3.42,8.36-5.88,11.87" stroke-dasharray="14.569" stroke-dashoffset="14.569"><animate attributeName="stroke-dashoffset" values="14.569" fill="freeze" begin="985a.click" /><animate attributeName="stroke-dashoffset" values="14.569;14.569;0" keyTimes="0;0.931;1" dur="4.199s" fill="freeze" begin="0s;985a.click" /></path><path d="M60.66,33.8c0.45,1.08,1.11,1.88,1.11,3.32c0,1.44-0.65,41.84-0.5,43.28" stroke-dasharray="46.823" stroke-dashoffset="46.823"><animate attributeName="stroke-dashoffset" values="46.823" fill="freeze" begin="985a.click" /><animate attributeName="stroke-dashoffset" values="46.823;46.823;0" keyTimes="0;0.9;1" dur="4.667s" fill="freeze" begin="0s;985a.click" /></path><path d="M63.03,35.23c2.56-0.18,23.24-2.86,25.58-3.08c1.94-0.18,3.48,1.99,3.31,3.32c-0.21,1.69-0.9,43.75-0.9,44.83" stroke-dasharray="75.842" stroke-dashoffset="75.842"><animate attributeName="stroke-dashoffset" values="75.842" fill="freeze" begin="985a.click" /><animate attributeName="stroke-dashoffset" values="75.842;75.842;0" keyTimes="0;0.891;1" dur="5.237s" fill="freeze" begin="0s;985a.click" /></path><path d="M61.99,49.32c4.62,0,9.29-0.62,13.89-1.01c1.54-0.13,3.08-0.27,4.59-0.4" stroke-dasharray="18.54" stroke-dashoffset="18.54"><animate attributeName="stroke-dashoffset" values="18.54" fill="freeze" begin="985a.click" /><animate attributeName="stroke-dashoffset" values="18.54;18.54;0" keyTimes="0;0.966;1" dur="5.422s" fill="freeze" begin="0s;985a.click" /></path><path d="M61.69,63.44c5.18-0.27,10.36-0.64,15.53-1.02c1.34-0.1,2.66-0.19,3.94-0.29" stroke-dasharray="19.515" stroke-dashoffset="19.515"><animate attributeName="stroke-dashoffset" values="19.515" fill="freeze" begin="985a.click" /><animate attributeName="stroke-dashoffset" values="19.515;19.515;0" keyTimes="0;0.965;1" dur="5.617s" fill="freeze" begin="0s;985a.click" /></path><path d="M61.86,77.79c6.39-0.54,21.01-1.5,28.46-2.04" stroke-dasharray="28.534" stroke-dashoffset="28.534"><animate attributeName="stroke-dashoffset" values="28.534" fill="freeze" begin="985a.click" /><animate attributeName="stroke-dashoffset" values="28.534;28.534;0" keyTimes="0;0.952;1" dur="5.902s" fill="freeze" begin="0s;985a.click" /></path><path d="M68.16,82.48c0.39,1.31,0.28,2.67-0.5,3.63C65.3,88.99,59,94.5,52.71,98.5" stroke-dasharray="23.288" stroke-dashoffset="23.288"><animate attributeName="stroke-dashoffset" values="23.288" fill="freeze" begin="985a.click" /><animate attributeName="stroke-dashoffset" values="23.288;23.288;0" keyTimes="0;0.962;1" dur="6.135s" fill="freeze" begin="0s;985a.click" /></path><path d="M84.32,84.62c4.78,3.51,10.43,9.89,11.73,12.96" stroke-dasharray="17.609" stroke-dashoffset="17.609"><animate attributeName="stroke-dashoffset" values="17.609" fill="freeze" begin="985a.click" /><animate attributeName="stroke-dashoffset" values="17.609;17.609;0" keyTimes="0;0.972;1" dur="6.311s" fill="freeze" begin="0s;985a.click" /></path></g></svg>