<svg xmlns="http://www.w3.org/2000/svg" viewBox="0 0 109 109" id="9dd7"><g fill="none" stroke="#a6a6a6" stroke-width="6" stroke-linecap="round" stroke-linejoin="round"><g><g><g><path d="M12.9,22.45c0.88,0.52,2.48,0.61,3.36,0.52C25.39,22.09,35.5,21,44.52,19.9c1.47-0.18,3.22-0.28,3.95-0.02" /></g><g><g><path d="M24.54,30.36c0.21,0.29,0.43,0.54,0.53,0.91c0.74,2.91,1.63,10.94,2.14,16.17" /><path d="M25.51,31.79c5.11-1.12,13.71-2.42,16.63-2.87c1.07-0.16,1.71,0.97,1.56,1.92c-0.63,3.97-1.08,6.15-2.02,11.63" /><path d="M27.18,45.12c3.44-0.5,11.14-1.38,15.86-2.15" /></g><g><g><path d="M20.2,56.64c0.25,0.33,0.51,0.6,0.62,1.01c0.87,3.26,1.78,13.43,2.37,19.28" /><path d="M21.46,58.85c3.18-0.86,5.76-2.25,8.69-2.67c1.07-0.16,1.71,0.93,1.56,1.85c-0.63,3.81-1.08,10.5-2.02,15.76" /><path d="M23.14,74.98c3.44-0.48,7.06-1.24,8.37-1.15" /></g><g><path d="M36.53,54.64c0.25,0.36,0.51,0.66,0.62,1.11C38.01,59.3,38.71,68.63,39.3,75" /><path d="M37.5,56.14c3.95-1.02,6.9-1.54,9.83-2c1.07-0.17,1.71,1.01,1.56,2.01c-0.63,4.14-1.37,9.11-2.32,14.83" /><path d="M39.46,73.25c3.44-0.53,3.45-0.03,8.18-0.84" /></g></g></g><g><path d="M15.14,23.8c0,3.58,0,58.09,0,61.44c0,6.03,0.57,3.69,1.59,3.57c5.77-0.67,23.3-3.39,25.17-3.39s3.46-0.31,4.62,0.14" /></g></g><g><path d="M68.38,9.91c0.02,0.28,0.04,0.72-0.03,1.1c-0.42,2.3-2.85,7.23-6.16,10.09" /><path d="M56.62,21.58c0.35,0.43,0.62,1.01,0.62,1.71c0,7.17-0.46,35.22-0.67,46.49" /><path d="M57.67,22.89c1.62,0,21.83-3.14,23.4-3.03c2.33,0.16,3.46,2.13,3.25,3.98c-0.13,1.14-1.71,13.08-3.21,21.78" /><path d="M57.93,34.12c1.98,0.13,22.46-2.72,24.7-2.57" /><path d="M57.83,46.06c4.03-0.14,18.25-2.46,23.27-2.48" /><path d="M58.06,58.2c8.51-0.83,27.33-2.83,30.99-3.35c1.27-0.18,3.44-0.35,4.08-0.1" /><path d="M56.58,70c9.46-1.62,30.16-3.89,35.41-4.37c3.42-0.31,5.17,0.88,4.55,4.53c-1.71,10.15-4.24,19.79-7.21,26.03c-2.98,6.27-6.21,1.04-7.59-0.24" /><g><path d="M52.41,81.63c0.46,4.13-0.33,9.07-1.7,11.6" /><path d="M59.7,80.15c1.91,1.82,3.72,6.61,4.2,9.29" /><path d="M69.93,78.46c1.39,1.4,3.6,5.63,3.95,7.7" /><path d="M79.23,76.17c1.78,1.34,4.6,5.37,5.05,7.33" /></g></g></g></g><g fill="none" stroke="#000" stroke-width="3" stroke-linecap="round" stroke-linejoin="round"><path d="M12.9,22.45c0.88,0.52,2.48,0.61,3.36,0.52C25.39,22.09,35.5,21,44.52,19.9c1.47-0.18,3.22-0.28,3.95-0.02" stroke-dasharray="35.845" stroke-dashoffset="35.845"><animate attributeName="stroke-dashoffset" values="35.845;35.845;0" dur="0.358s" fill="freeze" begin="0s;9dd7.click" /></path><path d="M24.54,30.36c0.21,0.29,0.43,0.54,0.53,0.91c0.74,2.91,1.63,10.94,2.14,16.17" stroke-dasharray="17.381" stroke-dashoffset="17.381"><animate attributeName="stroke-dashoffset" values="17.381" fill="freeze" begin="9dd7.click" /><animate attributeName="stroke-dashoffset" values="17.381;17.381;0" keyTimes="0;0.673;1" dur="0.532s" fill="freeze" begin="0s;9dd7.click" /></path><path d="M25.51,31.79c5.11-1.12,13.71-2.42,16.63-2.87c1.07-0.16,1.71,0.97,1.56,1.92c-0.63,3.97-1.08,6.15-2.02,11.63" stroke-dasharray="31.558" stroke-dashoffset="31.558"><animate attributeName="stroke-dashoffset" values="31.558" fill="freeze" begin="9dd7.click" /><animate attributeName="stroke-dashoffset" values="31.558;31.558;0" keyTimes="0;0.627;1" dur="0.848s" fill="freeze" begin="0s;9dd7.click" /></path><path d="M27.18,45.12c3.44-0.5,11.14-1.38,15.86-2.15" stroke-dasharray="16.007" stroke-dashoffset="16.007"><animate attributeName="stroke-dashoffset" values="16.007" fill="freeze" begin="9dd7.click" /><animate attributeName="stroke-dashoffset" values="16.007;16.007;0" keyTimes="0;0.841;1" dur="1.008s" fill="freeze" begin="0s;9dd7.click" /></path><path d="M20.2,56.64c0.25,0.33,0.51,0.6,0.62,1.01c0.87,3.26,1.78,13.43,2.37,19.28" stroke-dasharray="20.631" stroke-dashoffset="20.631"><animate attributeName="stroke-dashoffset" values="20.631" fill="freeze" begin="9dd7.click" /><animate attributeName="stroke-dashoffset" values="20.631;20.631;0" keyTimes="0;0.83;1" dur="1.214s" fill="freeze" begin="0s;9dd7.click" /></path><path d="M21.46,58.85c3.18-0.86,5.76-2.25,8.69-2.67c1.07-0.16,1.71,0.93,1.56,1.85c-0.63,3.81-1.08,10.5-2.02,15.76" stroke-dasharray="27.815" stroke-dashoffset="27.815"><animate attributeName="stroke-dashoffset" values="27.815" fill="freeze" begin="9dd7.click" /><animate attributeName="stroke-dashoffset" values="27.815;27.815;0" keyTimes="0;0.814;1" dur="1.492s" fill="freeze" begin="0s;9dd7.click" /></path><path d="M23.14,74.98c3.44-0.48,7.06-1.24,8.37-1.15" stroke-dasharray="8.457" stroke-dashoffset="8.457"><animate attributeName="stroke-dashoffset" values="8.457" fill="freeze" begin="9dd7.click" /><animate attributeName="stroke-dashoffset" values="8.457;8.457;0" keyTimes="0;0.898;1" dur="1.661s" fill="freeze" begin="0s;9dd7.click" /></path><path d="M36.53,54.64c0.25,0.36,0.51,0.66,0.62,1.11C38.01,59.3,38.71,68.63,39.3,75" stroke-dasharray="20.661" stroke-dashoffset="20.661"><animate attributeName="stroke-dashoffset" values="20.661" fill="freeze" begin="9dd7.click" /><animate attributeName="stroke-dashoffset" values="20.661;20.661;0" keyTimes="0;0.889;1" dur="1.868s" fill="freeze" begin="0s;9dd7.click" /></path><path d="M37.5,56.14c3.95-1.02,6.9-1.54,9.83-2c1.07-0.17,1.71,1.01,1.56,2.01c-0.63,4.14-1.37,9.11-2.32,14.83" stroke-dasharray="28.002" stroke-dashoffset="28.002"><animate attributeName="stroke-dashoffset" values="28.002" fill="freeze" begin="9dd7.click" /><animate attributeName="stroke-dashoffset" values="28.002;28.002;0" keyTimes="0;0.87;1" dur="2.148s" fill="freeze" begin="0s;9dd7.click" /></path><path d="M39.46,73.25c3.44-0.53,3.45-0.03,8.18-0.84" stroke-dasharray="8.231" stroke-dashoffset="8.231"><animate attributeName="stroke-dashoffset" values="8.231" fill="freeze" begin="9dd7.click" /><animate attributeName="stroke-dashoffset" values="8.231;8.231;0" keyTimes="0;0.929;1" dur="2.313s" fill="freeze" begin="0s;9dd7.click" /></path><path d="M15.14,23.8c0,3.58,0,58.09,0,61.44c0,6.03,0.57,3.69,1.59,3.57c5.77-0.67,23.3-3.39,25.17-3.39s3.46-0.31,4.62,0.14" stroke-dasharray="96.983" stroke-dashoffset="96.983"><animate attributeName="stroke-dashoffset" values="96.983" fill="freeze" begin="9dd7.click" /><animate attributeName="stroke-dashoffset" values="96.983;96.983;0" keyTimes="0;0.76;1" dur="3.042s" fill="freeze" begin="0s;9dd7.click" /></path><path d="M68.38,9.91c0.02,0.28,0.04,0.72-0.03,1.1c-0.42,2.3-2.85,7.23-6.16,10.09" stroke-dasharray="13.091" stroke-dashoffset="13.091"><animate attributeName="stroke-dashoffset" values="13.091" fill="freeze" begin="9dd7.click" /><animate attributeName="stroke-dashoffset" values="13.091;13.091;0" keyTimes="0;0.921;1" dur="3.304s" fill="freeze" begin="0s;9dd7.click" /></path><path d="M56.62,21.58c0.35,0.43,0.62,1.01,0.62,1.71c0,7.17-0.46,35.22-0.67,46.49" stroke-dasharray="48.352" stroke-dashoffset="48.352"><animate attributeName="stroke-dashoffset" values="48.352" fill="freeze" begin="9dd7.click" /><animate attributeName="stroke-dashoffset" values="48.352;48.352;0" keyTimes="0;0.872;1" dur="3.788s" fill="freeze" begin="0s;9dd7.click" /></path><path d="M57.67,22.89c1.62,0,21.83-3.14,23.4-3.03c2.33,0.16,3.46,2.13,3.25,3.98c-0.13,1.14-1.71,13.08-3.21,21.78" stroke-dasharray="51.4" stroke-dashoffset="51.4"><animate attributeName="stroke-dashoffset" values="51.4" fill="freeze" begin="9dd7.click" /><animate attributeName="stroke-dashoffset" values="51.4;51.4;0" keyTimes="0;0.881;1" dur="4.302s" fill="freeze" begin="0s;9dd7.click" /></path><path d="M57.93,34.12c1.98,0.13,22.46-2.72,24.7-2.57" stroke-dasharray="24.843" stroke-dashoffset="24.843"><animate attributeName="stroke-dashoffset" values="24.843" fill="freeze" begin="9dd7.click" /><animate attributeName="stroke-dashoffset" values="24.843;24.843;0" keyTimes="0;0.945;1" dur="4.55s" fill="freeze" begin="0s;9dd7.click" /></path><path d="M57.83,46.06c4.03-0.14,18.25-2.46,23.27-2.48" stroke-dasharray="23.411" stroke-dashoffset="23.411"><animate attributeName="stroke-dashoffset" values="23.411" fill="freeze" begin="9dd7.click" /><animate attributeName="stroke-dashoffset" values="23.411;23.411;0" keyTimes="0;0.951;1" dur="4.784s" fill="freeze" begin="0s;9dd7.click" /></path><path d="M58.06,58.2c8.51-0.83,27.33-2.83,30.99-3.35c1.27-0.18,3.44-0.35,4.08-0.1" stroke-dasharray="35.275" stroke-dashoffset="35.275"><animate attributeName="stroke-dashoffset" values="35.275" fill="freeze" begin="9dd7.click" /><animate attributeName="stroke-dashoffset" values="35.275;35.275;0" keyTimes="0;0.931;1" dur="5.137s" fill="freeze" begin="0s;9dd7.click" /></path><path d="M56.58,70c9.46-1.62,30.16-3.89,35.41-4.37c3.42-0.31,5.17,0.88,4.55,4.53c-1.71,10.15-4.24,19.79-7.21,26.03c-2.98,6.27-6.21,1.04-7.59-0.24" stroke-dasharray="80.99" stroke-dashoffset="80.99"><animate attributeName="stroke-dashoffset" values="80.99" fill="freeze" begin="9dd7.click" /><animate attributeName="stroke-dashoffset" values="80.99;80.99;0" keyTimes="0;0.894;1" dur="5.746s" fill="freeze" begin="0s;9dd7.click" /></path><path d="M52.41,81.63c0.46,4.13-0.33,9.07-1.7,11.6" stroke-dasharray="11.867" stroke-dashoffset="11.867"><animate attributeName="stroke-dashoffset" values="11.867" fill="freeze" begin="9dd7.click" /><animate attributeName="stroke-dashoffset" values="11.867;11.867;0" keyTimes="0;0.96;1" dur="5.983s" fill="freeze" begin="0s;9dd7.click" /></path><path d="M59.7,80.15c1.91,1.82,3.72,6.61,4.2,9.29" stroke-dasharray="10.312" stroke-dashoffset="10.312"><animate attributeName="stroke-dashoffset" values="10.312" fill="freeze" begin="9dd7.click" /><animate attributeName="stroke-dashoffset" values="10.312;10.312;0" keyTimes="0;0.967;1" dur="6.189s" fill="freeze" begin="0s;9dd7.click" /></path><path d="M69.93,78.46c1.39,1.4,3.6,5.63,3.95,7.7" stroke-dasharray="8.731" stroke-dashoffset="8.731"><animate attributeName="stroke-dashoffset" values="8.731" fill="freeze" begin="9dd7.click" /><animate attributeName="stroke-dashoffset" values="8.731;8.731;0" keyTimes="0;0.973;1" dur="6.364s" fill="freeze" begin="0s;9dd7.click" /></path><path d="M79.23,76.17c1.78,1.34,4.6,5.37,5.05,7.33" stroke-dasharray="9.005" stroke-dashoffset="9.005"><animate attributeName="stroke-dashoffset" values="9.005" fill="freeze" begin="9dd7.click" /><animate attributeName="stroke-dashoffset" values="9.005;9.005;0" keyTimes="0;0.972;1" dur="6.544s" fill="freeze" begin="0s;9dd7.click" /></path></g></svg>