<svg xmlns="http://www.w3.org/2000/svg" viewBox="0 0 109 109" id="9f20"><g fill="none" stroke="#a6a6a6" stroke-width="6" stroke-linecap="round" stroke-linejoin="round"><g><g><path d="M43.84,13.46c0.05,0.27,0.2,0.79-0.09,1.09c-3.79,3.87-10,7.7-16.35,10.4" /><path d="M24.87,23.75c0.79,0.5,1.12,1.61,1.31,2.63c0.72,3.73,3.49,15.82,4.21,20.86" /><path d="M28.02,33.88c4.98-1.13,13.78-3.13,14.72-3.13s2.25,0,2.99,0" /><path d="M57.65,18.95c0.94,0.11,1.68,0.34,2.99,0.34s16.16-2.36,17.65-2.48c1.5-0.11,2.74,0.56,2.62,1.25c-1.12,6.58-2.62,19.29-3.74,24.74" /><path d="M58.03,29.29c0.94,0.11,1.68,0.34,2.99,0.34c1.31,0,14.78-0.91,16.28-1.02" /><path d="M30.08,44.82C40.5,43.5,65,40.25,77.24,39.73" /></g><g><path d="M26.37,52.51c0.85,0.46,1.36,2.07,1.53,2.99c0.15,0.83-0.1,28.72-0.1,36.87c0,2.16,1.04,2.07,2.02,1.36c3.44-2.47,10.93-9.24,16.68-12.49" /><path d="M35.75,52.25c2.56,1.01,6.61,4.17,7.25,5.75" /><path d="M36.75,68.75c2.56,1.01,6.61,4.17,7.25,5.75" /><path d="M50.87,47.01c0.85,0.46,1.36,2.07,1.53,2.99c0.15,0.83-0.1,34.72-0.1,42.87c0,2.16,1.04,2.07,2.02,1.36C57.77,91.77,67.17,83.5,71,81.25" /><path d="M59.25,51.75c2.56,1.01,6.61,4.17,7.25,5.75" /><path d="M59.5,67c2.82,1.32,7.29,5.44,8,7.5" /><path d="M72.5,46.75c1.07,1,1.63,1.27,1.75,3.42c0.81,14.84,6.86,35.75,18.48,43.81c5.78,4.01,5.53,1.01,4.59-9" /></g></g></g><g fill="none" stroke="#000" stroke-width="3" stroke-linecap="round" stroke-linejoin="round"><path d="M43.84,13.46c0.05,0.27,0.2,0.79-0.09,1.09c-3.79,3.87-10,7.7-16.35,10.4" stroke-dasharray="20.63" stroke-dashoffset="20.63"><animate attributeName="stroke-dashoffset" values="20.63;20.63;0" dur="0.206s" fill="freeze" begin="0s;9f20.click" /></path><path d="M24.87,23.75c0.79,0.5,1.12,1.61,1.31,2.63c0.72,3.73,3.49,15.82,4.21,20.86" stroke-dasharray="24.303" stroke-dashoffset="24.303"><animate attributeName="stroke-dashoffset" values="24.303" fill="freeze" begin="9f20.click" /><animate attributeName="stroke-dashoffset" values="24.303;24.303;0" keyTimes="0;0.459;1" dur="0.449s" fill="freeze" begin="0s;9f20.click" /></path><path d="M28.02,33.88c4.98-1.13,13.78-3.13,14.72-3.13s2.25,0,2.99,0" stroke-dasharray="18.044" stroke-dashoffset="18.044"><animate attributeName="stroke-dashoffset" values="18.044" fill="freeze" begin="9f20.click" /><animate attributeName="stroke-dashoffset" values="18.044;18.044;0" keyTimes="0;0.714;1" dur="0.629s" fill="freeze" begin="0s;9f20.click" /></path><path d="M57.65,18.95c0.94,0.11,1.68,0.34,2.99,0.34s16.16-2.36,17.65-2.48c1.5-0.11,2.74,0.56,2.62,1.25c-1.12,6.58-2.62,19.29-3.74,24.74" stroke-dasharray="49.073" stroke-dashoffset="49.073"><animate attributeName="stroke-dashoffset" values="49.073" fill="freeze" begin="9f20.click" /><animate attributeName="stroke-dashoffset" values="49.073;49.073;0" keyTimes="0;0.562;1" dur="1.12s" fill="freeze" begin="0s;9f20.click" /></path><path d="M58.03,29.29c0.94,0.11,1.68,0.34,2.99,0.34c1.31,0,14.78-0.91,16.28-1.02" stroke-dasharray="19.327" stroke-dashoffset="19.327"><animate attributeName="stroke-dashoffset" values="19.327" fill="freeze" begin="9f20.click" /><animate attributeName="stroke-dashoffset" values="19.327;19.327;0" keyTimes="0;0.853;1" dur="1.313s" fill="freeze" begin="0s;9f20.click" /></path><path d="M30.08,44.82C40.5,43.5,65,40.25,77.24,39.73" stroke-dasharray="47.445" stroke-dashoffset="47.445"><animate attributeName="stroke-dashoffset" values="47.445" fill="freeze" begin="9f20.click" /><animate attributeName="stroke-dashoffset" values="47.445;47.445;0" keyTimes="0;0.735;1" dur="1.787s" fill="freeze" begin="0s;9f20.click" /></path><path d="M26.37,52.51c0.85,0.46,1.36,2.07,1.53,2.99c0.15,0.83-0.1,28.72-0.1,36.87c0,2.16,1.04,2.07,2.02,1.36c3.44-2.47,10.93-9.24,16.68-12.49" stroke-dasharray="64.638" stroke-dashoffset="64.638"><animate attributeName="stroke-dashoffset" values="64.638" fill="freeze" begin="9f20.click" /><animate attributeName="stroke-dashoffset" values="64.638;64.638;0" keyTimes="0;0.786;1" dur="2.273s" fill="freeze" begin="0s;9f20.click" /></path><path d="M35.75,52.25c2.56,1.01,6.61,4.17,7.25,5.75" stroke-dasharray="9.386" stroke-dashoffset="9.386"><animate attributeName="stroke-dashoffset" values="9.386" fill="freeze" begin="9f20.click" /><animate attributeName="stroke-dashoffset" values="9.386;9.386;0" keyTimes="0;0.924;1" dur="2.461s" fill="freeze" begin="0s;9f20.click" /></path><path d="M36.75,68.75c2.56,1.01,6.61,4.17,7.25,5.75" stroke-dasharray="9.386" stroke-dashoffset="9.386"><animate attributeName="stroke-dashoffset" values="9.386" fill="freeze" begin="9f20.click" /><animate attributeName="stroke-dashoffset" values="9.386;9.386;0" keyTimes="0;0.929;1" dur="2.649s" fill="freeze" begin="0s;9f20.click" /></path><path d="M50.87,47.01c0.85,0.46,1.36,2.07,1.53,2.99c0.15,0.83-0.1,34.72-0.1,42.87c0,2.16,1.04,2.07,2.02,1.36C57.77,91.77,67.17,83.5,71,81.25" stroke-dasharray="70.926" stroke-dashoffset="70.926"><animate attributeName="stroke-dashoffset" values="70.926" fill="freeze" begin="9f20.click" /><animate attributeName="stroke-dashoffset" values="70.926;70.926;0" keyTimes="0;0.832;1" dur="3.182s" fill="freeze" begin="0s;9f20.click" /></path><path d="M59.25,51.75c2.56,1.01,6.61,4.17,7.25,5.75" stroke-dasharray="9.386" stroke-dashoffset="9.386"><animate attributeName="stroke-dashoffset" values="9.386" fill="freeze" begin="9f20.click" /><animate attributeName="stroke-dashoffset" values="9.386;9.386;0" keyTimes="0;0.944;1" dur="3.37s" fill="freeze" begin="0s;9f20.click" /></path><path d="M59.5,67c2.82,1.32,7.29,5.44,8,7.5" stroke-dasharray="11.126" stroke-dashoffset="11.126"><animate attributeName="stroke-dashoffset" values="11.126" fill="freeze" begin="9f20.click" /><animate attributeName="stroke-dashoffset" values="11.126;11.126;0" keyTimes="0;0.938;1" dur="3.593s" fill="freeze" begin="0s;9f20.click" /></path><path d="M72.5,46.75c1.07,1,1.63,1.27,1.75,3.42c0.81,14.84,6.86,35.75,18.48,43.81c5.78,4.01,5.53,1.01,4.59-9" stroke-dasharray="68.435" stroke-dashoffset="68.435"><animate attributeName="stroke-dashoffset" values="68.435" fill="freeze" begin="9f20.click" /><animate attributeName="stroke-dashoffset" values="68.435;68.435;0" keyTimes="0;0.875;1" dur="4.108s" fill="freeze" begin="0s;9f20.click" /></path></g></svg>